<?xml version="1.0" encoding="UTF-8"?>
<svg version="1.1" xmlns="http://www.w3.org/2000/svg" width="4500" height="4500">
<path d="M0 0 C38.31626804 35.88737986 54.73957811 89.83832937 56.48062134 140.85891724 C56.8963779 155.23495287 56.84367164 169.61954354 56.84624147 184.00033188 C56.8475075 187.68094999 56.85201466 191.36156197 56.85633373 195.04217756 C56.8699673 206.99938145 56.86989633 218.95656821 56.86717463 230.91377783 C56.86669904 234.01141348 56.86684975 237.10904845 56.86722946 240.20668411 C56.87405867 297.23797758 56.63751134 354.25877093 55.77526903 411.28397226 C55.74170623 413.50978901 55.70859558 415.73561209 55.67559433 417.96143723 C55.53207235 427.6120073 55.37709926 437.26233235 55.21435547 446.91259766 C55.18510798 448.71731285 55.18510798 448.71731285 55.15526962 450.55848694 C55.09943224 453.94084529 55.03870137 457.32307902 54.97631836 460.70532227 C54.9612131 461.65014686 54.94610785 462.59497145 54.93054485 463.56842709 C54.75313572 472.59803736 54.18139188 481.53328598 53.67919922 490.57275391 C19.35919922 490.57275391 -14.96080078 490.57275391 -50.32080078 490.57275391 C-50.31556396 481.53650635 -50.31032715 472.50025879 -50.30493164 463.19018555 C-50.2888216 434.15162468 -50.2777327 405.1130638 -50.26973545 376.07449961 C-50.26848501 371.55056158 -50.26719066 367.02662356 -50.26586914 362.50268555 C-50.26560683 361.6021949 -50.26534452 360.70170425 -50.26507426 359.77392601 C-50.26074385 345.26593259 -50.25287103 330.75794319 -50.24364799 316.24995214 C-50.23423786 301.32119922 -50.22872973 286.39244838 -50.22671229 271.46369261 C-50.22535221 262.28011786 -50.22108512 253.09655452 -50.21288431 243.91298329 C-50.20752567 237.58288192 -50.20601677 231.25278629 -50.2072994 224.92268283 C-50.20792883 221.29133405 -50.20708932 217.66000494 -50.20159531 214.02865982 C-50.18013178 199.04311122 -50.31816246 184.07302634 -50.76539612 169.09446716 C-50.80419166 167.77658237 -50.84298719 166.45869757 -50.88295835 165.10087687 C-51.87429139 134.59549611 -57.15133488 107.68320453 -79.78393555 85.58300781 C-84.54249017 81.15123724 -89.64215593 77.70231818 -95.32080078 74.57275391 C-96.11873047 74.11384766 -96.91666016 73.65494141 -97.73876953 73.18212891 C-123.40486759 59.28140369 -155.3947297 61.60942401 -182.59350586 69.32470703 C-208.43486965 77.27501973 -229.84084389 93.00043974 -243.32080078 116.57275391 C-249.98879392 129.25313414 -251.4521774 142.32837057 -251.890625 156.41796875 C-251.93160749 157.68201727 -251.97258999 158.94606579 -252.01481438 160.24841881 C-252.47158227 175.22823177 -252.46723146 190.21005885 -252.4550252 205.19543147 C-252.45308779 208.51115831 -252.45474499 211.82687995 -252.45636213 215.14260668 C-252.46067997 224.05303138 -252.45785228 232.96343984 -252.45136583 241.87386268 C-252.44667331 248.37844338 -252.44431128 254.88302154 -252.44311523 261.38760376 C-252.43116237 315.87650203 -252.20611929 370.36032315 -251.67675781 424.84667969 C-251.66517324 426.04365069 -251.65358868 427.2406217 -251.64165306 428.47386456 C-251.58825662 433.9531957 -251.53309855 439.43249397 -251.47323608 444.91175842 C-251.31520854 460.13485272 -251.32080078 475.34611465 -251.32080078 490.57275391 C-286.30080078 490.57275391 -321.28080078 490.57275391 -357.32080078 490.57275391 C-357.31556396 481.52716064 -357.31032715 472.48156738 -357.30493164 463.16186523 C-357.28881216 434.07343749 -357.27772871 404.98500972 -357.26973545 375.89657866 C-357.26848505 371.36277443 -357.2671907 366.82897022 -357.26586914 362.29516602 C-357.26560683 361.392734 -357.26534452 360.49030198 -357.26507426 359.56052353 C-357.26074711 345.03259952 -357.25287617 330.50467955 -357.24364799 315.97675792 C-357.23422863 301.02086538 -357.22872783 286.06497492 -357.22671229 271.10907954 C-357.2254746 262.72922337 -357.22252126 254.34937563 -357.21507072 245.96952248 C-350.71214916 163.19790327 -350.71214916 163.19790327 -380.60205078 91.22119141 C-381.49923828 90.34720703 -382.39642578 89.47322266 -383.32080078 88.57275391 C-384.07361328 87.82251953 -384.82642578 87.07228516 -385.60205078 86.29931641 C-402.62645731 70.20014936 -428.48108602 62.80398394 -451.6015625 63.17041016 C-482.26704363 64.35580982 -508.9899946 75.88037544 -530.28564453 98.19775391 C-559.0593913 129.49268023 -561.49550233 168.18062021 -561.4368664 208.46904469 C-561.43250291 212.23703308 -561.43401247 216.00502004 -561.43476868 219.77301025 C-561.43529021 226.28360407 -561.43218236 232.79418778 -561.42653084 239.30477905 C-561.41836529 248.71772333 -561.41579546 258.13066278 -561.41454285 267.54361022 C-561.41236023 282.81960358 -561.40572167 298.09559158 -561.39624023 313.37158203 C-561.38704561 328.20100884 -561.37997483 343.03043419 -561.37573242 357.85986328 C-561.37533834 359.23354987 -561.37533834 359.23354987 -561.37493629 360.63498771 C-561.37363115 365.2297515 -561.37236746 369.82451529 -561.37112439 374.4192791 C-561.36077641 412.47044113 -561.3431797 450.52159716 -561.32080078 488.57275391 C-563.4112193 488.73688705 -565.50171187 488.90007717 -567.59223557 489.06286526 C-568.75637065 489.15384218 -569.92050573 489.2448191 -571.11991763 489.33855289 C-574.3733252 489.57659699 -577.61093075 489.72500174 -580.87255859 489.77807617 C-581.98632874 489.79802139 -583.10009888 489.81796661 -584.24761963 489.83851624 C-585.41130066 489.85522873 -586.57498169 489.87194122 -587.77392578 489.88916016 C-589.03122498 489.90994125 -590.28852417 489.93072235 -591.58392334 489.95213318 C-594.23953361 489.99512868 -596.89511215 490.0366272 -599.55078125 490.07543945 C-603.49115009 490.1331668 -607.43135202 490.19956036 -611.37158203 490.26611328 C-630.36142556 490.56416015 -649.32353316 490.57275391 -668.32080078 490.57275391 C-668.32080078 319.63275391 -668.32080078 148.69275391 -668.32080078 -27.42724609 C-634.99080078 -27.42724609 -601.66080078 -27.42724609 -567.32080078 -27.42724609 C-567.32080078 -9.60724609 -567.32080078 8.21275391 -567.32080078 26.57275391 C-564.68080078 23.27275391 -562.04080078 19.97275391 -559.32080078 16.57275391 C-527.03642541 -18.81034499 -480.99912056 -38.86963569 -433.32080078 -41.42724609 C-385.22552812 -43.03363923 -340.52622987 -32.4198868 -304.48876953 1.08447266 C-293.45054547 11.64435043 -283.18654845 23.81228917 -276.32080078 37.57275391 C-276.32080078 38.23275391 -276.32080078 38.89275391 -276.32080078 39.57275391 C-273.82431612 37.32352492 -272.00217304 34.75685636 -270.11206055 31.99169922 C-243.68354679 -6.59298568 -200.60308187 -29.73121201 -155.32080078 -38.42724609 C-148.67918196 -39.62232413 -142.01659389 -40.59280647 -135.32080078 -41.42724609 C-134.28310547 -41.56001953 -133.24541016 -41.69279297 -132.17626953 -41.82958984 C-83.22968655 -46.94132169 -36.3540575 -33.32536687 0 0 Z " fill="#000000" transform="translate(2841.32080078125,1871.42724609375)"/>
<path d="M0 0 C0.75935852 0.00215515 1.51871704 0.0043103 2.30108643 0.00653076 C28.15598044 0.1236867 52.43183718 4.82110687 75.75 16.3125 C76.90113281 16.8796875 78.05226563 17.446875 79.23828125 18.03125 C86.59060038 21.8326841 93.25453596 26.19020777 99.75 31.3125 C100.26030762 31.71452637 100.77061523 32.11655273 101.29638672 32.53076172 C138.03523092 61.76321999 161.25494549 108.14765104 167.75 154.3125 C170.15680076 178.86167962 169.91237942 203.62020473 169.91704226 228.26192379 C169.91831215 231.75251472 169.92282309 235.24309924 169.92713451 238.73368752 C169.94076043 250.09121526 169.94069609 261.44872492 169.93797541 272.80625868 C169.93749951 275.75306312 169.93765076 278.69986684 169.93803024 281.6466713 C169.94505507 337.51533199 169.67626092 393.37306872 168.84606981 449.2358613 C168.81254022 451.49728752 168.7794202 453.75871941 168.74639511 456.02015305 C168.62129498 464.56077977 168.49021464 473.10128699 168.34943008 481.64167023 C168.30758477 484.1816008 168.26642921 486.72154287 168.2260704 489.2614975 C168.16992705 492.7345421 168.10926355 496.20747808 168.04711914 499.68041992 C168.03201388 500.6421131 168.01690863 501.60380629 168.00134563 502.59464169 C167.80063404 513.18414499 167.23153476 523.71873523 166.75 534.3125 C132.1 534.3125 97.45 534.3125 61.75 534.3125 C61.75 505.95865985 61.75911191 477.62833596 62.10595703 449.28051758 C62.66413403 401.98245196 62.86281837 354.68751652 62.87283063 307.38662469 C62.87409966 301.79827463 62.87784177 296.20993013 62.88256836 290.62158203 C62.94585435 249.37637745 62.94585435 249.37637745 62.3671875 208.13671875 C62.35204227 207.37182444 62.33689705 206.60693012 62.32129288 205.81885719 C62.15336435 197.77475583 61.70557225 189.79199757 60.88330078 181.78833008 C60.81346922 181.06515689 60.74363766 180.3419837 60.67168999 179.59689617 C58.39803348 159.34093198 45.7630599 139.40771917 30.4296875 126.3671875 C8.15563198 109.28824697 -17.58915194 104.57924575 -45.18408203 107.63769531 C-50.97138523 108.48977542 -56.60939158 109.77473088 -62.25 111.3125 C-62.9188623 111.48910156 -63.58772461 111.66570312 -64.27685547 111.84765625 C-91.19713118 119.17290134 -114.9844085 137.55406853 -129.20263672 161.47363281 C-135.90802458 173.24635575 -138.4867288 183.65698123 -138.86669922 197.07714844 C-138.90429792 198.24293301 -138.94189663 199.40871758 -138.98063469 200.60982895 C-139.42252495 215.90263071 -139.39589094 231.20063266 -139.38422441 246.49842381 C-139.3822908 250.03132648 -139.38394294 253.56422423 -139.38556135 257.09712678 C-139.38989284 266.6158443 -139.38703543 276.13454666 -139.38056505 285.65326244 C-139.37588284 292.60303994 -139.3735124 299.55281507 -139.37231445 306.50259399 C-139.3595667 368.51771584 -139.0972267 430.52889613 -138.60595703 492.54199219 C-138.60062824 493.21489178 -138.59529945 493.88779138 -138.58980918 494.58108187 C-138.48438915 507.82495932 -138.36593754 521.06870581 -138.25 534.3125 C-173.56 534.3125 -208.87 534.3125 -245.25 534.3125 C-245.27505615 526.67125977 -245.3001123 519.03001953 -245.32592773 511.15722656 C-245.40765673 486.40108013 -245.49324606 461.64494839 -245.58111694 436.88882305 C-245.59487826 433.01084307 -245.60860659 429.13286298 -245.62231445 425.25488281 C-245.62504276 424.48319762 -245.62777106 423.71151243 -245.63058204 422.91644284 C-245.67405495 410.59838929 -245.7148865 398.28032844 -245.75465261 385.96226242 C-245.79585065 373.21990349 -245.84009332 360.47755746 -245.88687855 347.73521781 C-245.91291791 340.62143931 -245.93776003 333.50766185 -245.95907402 326.39386749 C-246.05009099 296.27953973 -246.24863538 266.16921198 -246.67620607 236.05777711 C-246.70663998 233.89572617 -246.73602956 231.73366326 -246.76518333 229.57159472 C-246.95224493 215.86728289 -247.18867717 202.16427502 -247.65892029 188.46636963 C-247.68771524 187.47881613 -247.7165102 186.49126262 -247.74617773 185.47378325 C-248.10764473 176.09260058 -249.5129717 167.67744225 -253.875 159.3125 C-254.4006958 158.28394897 -254.4006958 158.28394897 -254.93701172 157.23461914 C-258.04917221 151.33456834 -261.83453613 146.30796125 -266.25 141.3125 C-266.6934375 140.72726562 -267.136875 140.14203125 -267.59375 139.5390625 C-283.97619146 118.26186719 -312.47804135 108.66910609 -337.94921875 104.7421875 C-373.14323562 101.10276221 -414.38648506 118.78603543 -443.1333065 137.54121876 C-449.19715359 141.33824837 -453.93693626 142.01243955 -461.00219727 141.88012695 C-462.05397376 141.88072963 -463.10575026 141.8813323 -464.18939877 141.88195324 C-467.56562177 141.87824623 -470.94043293 141.84028902 -474.31640625 141.80078125 C-476.41206194 141.79342202 -478.50772682 141.78832594 -480.60339355 141.78552246 C-488.3399033 141.75939848 -496.07621579 141.68959193 -503.8125 141.625 C-529.7690625 141.4703125 -529.7690625 141.4703125 -556.25 141.3125 C-556.25 99.7325 -556.25 58.1525 -556.25 15.3125 C-545.73125 15.1475 -535.2125 14.9825 -524.375 14.8125 C-519.51418701 14.73418945 -519.51418701 14.73418945 -514.55517578 14.65429688 C-494.45047911 14.34283481 -474.35767577 14.26987642 -454.25 14.3125 C-454.25 31.8025 -454.25 49.2925 -454.25 67.3125 C-450.62 63.3525 -446.99 59.3925 -443.25 55.3125 C-441.6 53.6625 -439.95 52.0125 -438.25 50.3125 C-437.37649902 49.41289551 -437.37649902 49.41289551 -436.48535156 48.49511719 C-405.50681712 16.71982926 -357.94540579 1.59385033 -314.5004425 0.92747498 C-311.7919252 0.90019744 -309.08363161 0.88530389 -306.375 0.875 C-305.52366486 0.86864532 -304.67232971 0.86229065 -303.79519653 0.85574341 C-287.47633256 0.77993879 -271.17910741 2.30426164 -255.5 7.0625 C-254.6335083 7.31926514 -253.7670166 7.57603027 -252.87426758 7.84057617 C-229.46274333 15.00780922 -208.9947549 27.51339034 -191.25 44.3125 C-190.36570312 45.13234375 -189.48140625 45.9521875 -188.5703125 46.796875 C-178.34533446 56.58736388 -170.13970283 67.95754766 -163.25 80.3125 C-160.27101669 77.48476749 -157.90499017 74.55636426 -155.5625 71.1875 C-151.48974722 65.51581465 -147.04028346 60.3850532 -142.25 55.3125 C-141.59902344 54.59707031 -140.94804688 53.88164063 -140.27734375 53.14453125 C-128.61709841 40.81028329 -114.15820491 31.25496869 -99.25 23.3125 C-98.58597168 22.95849121 -97.92194336 22.60448242 -97.23779297 22.23974609 C-67.45598267 6.68077631 -33.42963744 -0.17266516 0 0 Z " fill="#000000" transform="translate(1427.25,1823.6875)"/>
<path d="M0 0 C1.00345459 -0.00701431 2.00690918 -0.01402863 3.04077148 -0.02125549 C6.26681038 -0.0386847 9.49266573 -0.04510907 12.71875 -0.046875 C13.82033447 -0.04754974 14.92191895 -0.04822449 16.05688477 -0.04891968 C32.31849403 -0.03307506 48.16451971 0.39086673 64.21875 3.203125 C65.22550781 3.36941406 66.23226562 3.53570313 67.26953125 3.70703125 C90.95454939 7.68894588 113.70671864 14.47334932 135.21875 25.203125 C135.91564941 25.54875488 136.61254883 25.89438477 137.33056641 26.25048828 C171.59556454 43.42825698 200.36494407 70.90653904 219.14648438 104.29785156 C219.86099601 105.56744374 220.58367491 106.83247412 221.31445312 108.09277344 C241.60468715 143.18020635 251.42389345 184.94556343 251.3515625 225.296875 C251.35299759 227.13529968 251.35299759 227.13529968 251.35446167 229.01086426 C251.35513851 231.60262097 251.35331905 234.19437942 251.34912109 236.78613281 C251.3438776 240.61006864 251.34902448 244.43388083 251.35546875 248.2578125 C251.34509863 268.60399222 250.76897671 288.84473685 250.21875 309.203125 C126.79875 309.203125 3.37875 309.203125 -123.78125 309.203125 C-110.51318165 358.48452174 -91.63235179 406.86304208 -45.66015625 434.06005859 C-14.86854354 451.41576055 22.68160592 453.11083289 56.37011719 444.20263672 C85.63387459 435.96045917 110.36070406 421.23696106 132.21875 400.203125 C132.89808594 399.58695313 133.57742188 398.97078125 134.27734375 398.3359375 C139.85045262 393.12201028 144.29291327 387.03924284 148.82788086 380.92919922 C149.36678955 380.20619629 149.90569824 379.48319336 150.4609375 378.73828125 C150.9441748 378.082229 151.42741211 377.42617676 151.92529297 376.75024414 C153.21875 375.203125 153.21875 375.203125 155.21875 374.203125 C156.84082031 374.96899414 156.84082031 374.96899414 158.796875 376.23828125 C159.53397705 376.71056152 160.2710791 377.1828418 161.03051758 377.66943359 C162.23744263 378.45954834 162.23744263 378.45954834 163.46875 379.265625 C165.20701601 380.38413827 166.94529788 381.50262689 168.68359375 382.62109375 C169.59351074 383.21067871 170.50342773 383.80026367 171.44091797 384.40771484 C175.04959782 386.74013105 178.67607558 389.04389708 182.30371094 391.34667969 C185.0648973 393.09948435 187.82375254 394.85590508 190.58203125 396.61328125 C194.3908366 399.03947898 198.20076411 401.46389841 202.01171875 403.88671875 C212.09762101 410.29949247 222.17503999 416.72441786 232.21875 423.203125 C227.49712767 443.66348844 213.88105739 462.66134675 200.21875 478.203125 C199.39503906 479.14800781 198.57132813 480.09289063 197.72265625 481.06640625 C192.85385245 486.54288419 187.88876156 491.56916207 182.21875 496.203125 C181.72342773 496.62142578 181.22810547 497.03972656 180.71777344 497.47070312 C144.10386844 528.38720071 98.55925487 544.41365921 51.21875 549.203125 C49.86765137 549.3434314 49.86765137 549.3434314 48.48925781 549.48657227 C-14.68721501 555.21161805 -81.86986159 543.14005473 -132.65625 502.765625 C-134.3843099 501.26724395 -136.09110164 499.74414262 -137.78125 498.203125 C-138.61849609 497.45192383 -138.61849609 497.45192383 -139.47265625 496.68554688 C-153.24767458 484.29972891 -165.70572359 471.05662348 -176.78125 456.203125 C-177.25385254 455.57631836 -177.72645508 454.94951172 -178.21337891 454.30371094 C-204.85637766 418.73819874 -221.1147522 376.76830295 -228.78125 333.203125 C-228.95624023 332.28595703 -229.13123047 331.36878906 -229.31152344 330.42382812 C-243.87321594 252.39622436 -221.81959551 159.61489503 -177.37548828 94.65039062 C-171.6401005 86.4230253 -165.46225987 78.6773458 -158.78125 71.203125 C-158.29124512 70.65140625 -157.80124023 70.0996875 -157.29638672 69.53125 C-117.75401338 25.19701721 -59.2959688 0.27797373 0 0 Z M-86.5234375 137.60546875 C-91.25873827 142.72511947 -95.20239427 148.21181854 -98.78125 154.203125 C-99.15588379 154.82493652 -99.53051758 155.44674805 -99.91650391 156.08740234 C-111.48536824 175.6531775 -116.9039734 196.67580581 -118.78125 219.203125 C-32.32125 219.203125 54.13875 219.203125 143.21875 219.203125 C143.21875 210.70154379 143.11956423 203.4827627 141.53125 195.328125 C141.26006348 193.90669189 141.26006348 193.90669189 140.98339844 192.45654297 C135.22592382 163.54656607 119.7024792 136.1018031 95.16015625 119.08203125 C71.0937258 103.79854781 44.72324581 97.98212672 16.46875 97.953125 C15.44479126 97.95161438 15.44479126 97.95161438 14.40014648 97.95007324 C-23.9478115 97.98815686 -59.54974327 109.43745055 -86.5234375 137.60546875 Z " fill="#000000" transform="translate(3200.78125,1821.796875)"/>
<path d="M0 0 C15.87753812 15.09459785 28.84255245 32.23746813 38.90478516 51.70410156 C39.93629196 53.68985563 41.00033166 55.65412395 42.07421875 57.6171875 C60.00645293 91.05897087 67.75951916 130.26054496 67.42578125 167.91796875 C67.42083667 170.10988565 67.41755132 172.30180684 67.41581726 174.49372864 C67.4082756 179.02713096 67.38800424 183.56020629 67.35668945 188.09350586 C67.31666752 193.89565688 67.29899579 199.69759957 67.28938007 205.49987316 C67.27942139 211.07676613 67.25959168 216.65360926 67.23828125 222.23046875 C67.2348855 223.28389151 67.23148975 224.33731426 67.2279911 225.42265892 C67.21640079 228.39796282 67.19788804 231.37313722 67.17700195 234.34838867 C67.17431305 235.22261475 67.17162415 236.09684082 67.16885376 236.99755859 C67.16169846 237.81109299 67.15454315 238.62462738 67.14717102 239.46281433 C67.1407608 240.51196408 67.1407608 240.51196408 67.13422108 241.58230877 C66.96785391 244.34663314 66.45527441 247.08085353 66 249.8125 C-57.09 249.8125 -180.18 249.8125 -307 249.8125 C-295.87278083 296.1759132 -276.75184168 345.93920092 -234.078125 372.2890625 C-201.49558514 391.6181599 -164.4449135 394.65579826 -128 385.8125 C-87.98402108 374.98121422 -53.19963357 350.23614635 -30 315.8125 C-24.24278958 317.325613 -19.87935587 320.28926944 -15 323.5625 C-13.20640681 324.74712039 -11.41211104 325.93067757 -9.6171875 327.11328125 C-8.69131836 327.72510254 -7.76544922 328.33692383 -6.81152344 328.96728516 C-2.27919181 331.94187376 2.29669633 334.84685543 6.875 337.75 C7.77879395 338.32387451 8.68258789 338.89774902 9.61376953 339.48901367 C11.46107657 340.66191481 13.30857141 341.8345202 15.15625 343.00683594 C18.10576695 344.87965766 21.05318397 346.75574413 24 348.6328125 C24.98371582 349.25937744 25.96743164 349.88594238 26.98095703 350.53149414 C28.85182262 351.72323584 30.72259715 352.91512051 32.59326172 354.10717773 C37.71359016 357.36719429 42.847908 360.60290208 48 363.8125 C47.51815156 370.23422561 45.24554491 375.25211349 42.4375 381 C41.9849585 381.93400635 41.53241699 382.8680127 41.06616211 383.83032227 C37.55892938 390.93927736 33.77090875 397.46304658 29 403.8125 C28.59700684 404.35390625 28.19401367 404.8953125 27.77880859 405.453125 C8.95791078 430.59484332 -13.98353981 450.49012653 -42 464.8125 C-42.64485352 465.15442383 -43.28970703 465.49634766 -43.95410156 465.84863281 C-102.72181198 496.91113338 -180.34317235 499.92141272 -243.13671875 480.99609375 C-273.02464939 471.62862944 -301.98870736 457.31615623 -325 435.8125 C-326.34956303 434.64051105 -327.70350123 433.47353438 -329.0625 432.3125 C-336.26747816 426.02267027 -342.8767721 419.15314132 -349 411.8125 C-349.41056641 411.3263623 -349.82113281 410.84022461 -350.24414062 410.33935547 C-363.80760686 394.19999489 -375.35019406 376.54714461 -385 357.8125 C-385.37962891 357.07918457 -385.75925781 356.34586914 -386.15039062 355.59033203 C-424.36047378 280.84633206 -423.51008622 191.81082063 -398.13671875 113.1796875 C-381.37505655 62.62372715 -353.43891924 13.09621571 -309 -18.1875 C-308.16879639 -18.78522217 -308.16879639 -18.78522217 -307.32080078 -19.39501953 C-275.52084423 -42.16591503 -237.69318811 -54.362471 -199 -58.1875 C-197.87464844 -58.29964844 -196.74929687 -58.41179687 -195.58984375 -58.52734375 C-125.99704384 -64.25482334 -52.15267215 -48.5165691 0 0 Z M-206 42.8125 C-206.71317383 42.9681543 -207.42634766 43.12380859 -208.16113281 43.28417969 C-237.96631056 49.84786938 -264.16789213 67.23631697 -280.8046875 92.91601562 C-293.503956 113.06469163 -302 136.85849168 -302 160.8125 C-215.54 160.8125 -129.08 160.8125 -40 160.8125 C-40 127.97012188 -51.09756502 95.65778322 -74.3125 72 C-89.94212908 56.66362693 -108.97881108 48.00359272 -130 42.8125 C-130.7027002 42.63315918 -131.40540039 42.45381836 -132.12939453 42.26904297 C-154.75560271 36.79066075 -183.43993649 37.35035944 -206 42.8125 Z " fill="#000000" transform="translate(3917,1880.1875)"/>
<path d="M0 0 C37.62 0 75.24 0 114 0 C120.88466246 18.35909989 120.88466246 18.35909989 124.03125 27.53125 C124.38414597 28.55384415 124.73704193 29.57643829 125.10063171 30.63002014 C125.84934414 32.8000863 126.59714941 34.97046565 127.34408569 37.1411438 C129.33547146 42.92771327 131.33414908 48.71176471 133.33203125 54.49609375 C133.73150467 55.65318344 134.13097809 56.81027313 134.54255676 58.00242615 C138.06427218 68.19847644 141.61776638 78.38317644 145.1875 88.5625 C145.75708822 90.18717163 146.32666828 91.81184611 146.89624023 93.43652344 C147.74741694 95.86442619 148.5985982 98.29232732 149.4499054 100.72018433 C152.35871922 109.01829404 155.25330061 117.32135264 158.1473999 125.62460327 C164.43778327 143.67153819 170.74671898 161.71193871 177.0625 179.75 C183.92479913 199.34895303 190.77921528 218.95063267 197.62316895 238.55599976 C201.74766582 250.37105526 205.87355874 262.18562345 210 274 C210.22605171 274.64721764 210.45210342 275.29443527 210.68500519 275.96126556 C223.04080362 311.33685146 235.4542602 346.69124195 248 382 C248.23200104 381.27672012 248.46400208 380.55344025 248.70303345 379.8082428 C269.89248837 313.77107529 269.89248837 313.77107529 281.13037109 281.39257812 C283.2801956 275.19734749 285.41503536 268.99697014 287.55078125 262.796875 C302.31812946 219.94517488 317.27535152 177.16166804 332.33483887 134.41186523 C335.15053185 126.41710307 337.95956143 118.42002141 340.765625 110.421875 C349.64826119 85.11244585 358.60806218 59.83251937 367.68359375 34.59155273 C368.06223068 33.53828796 368.44086761 32.48502319 368.83097839 31.39984131 C369.52290222 29.47577442 370.21531277 27.55188244 370.90840149 25.62823486 C373.97725982 17.09850505 376.98275773 8.5488531 380 0 C417.29 0 454.58 0 493 0 C483.7832472 27.6502584 483.7832472 27.6502584 479.37133789 39.71801758 C477.5958098 44.58236688 475.82641265 49.44890769 474.05915833 54.31626892 C473.27679675 56.47074867 472.49406623 58.62509448 471.71098328 60.77931213 C467.04016518 73.63059314 462.40385717 86.49431767 457.76709747 99.35791397 C456.8233112 101.97602082 455.87925005 104.59402851 454.93518066 107.21203327 C448.58940263 124.80960379 442.2506301 142.40969203 435.91629028 160.01138306 C429.85410355 176.85657242 423.78249151 193.69835212 417.70744324 210.5389061 C410.71601485 229.91975088 403.7277205 249.3017144 396.75 268.6875 C396.3845105 269.70290863 396.019021 270.71831726 395.64245605 271.76449585 C393.0947058 278.84290191 390.54730775 285.92143469 388 293 C385.08358459 301.10425711 382.1669974 309.20845235 379.25 317.3125 C378.88483276 318.3270224 378.51966553 319.3415448 378.14343262 320.3868103 C373.6359239 332.90899971 369.1248051 345.42988361 364.609375 357.94921875 C364.38016294 358.58473412 364.15095089 359.22024948 363.91479301 359.87502289 C361.5724292 366.36937094 359.22972279 372.86359523 356.88629436 379.3575592 C352.31498298 392.02552936 347.74728573 404.69475347 343.19921875 417.37109375 C339.16515753 428.61389455 335.11875304 439.85217042 331.05487061 451.08422852 C330.3563918 453.01489619 329.65834698 454.94572093 328.96075439 456.87670898 C264.64051467 634.86302116 264.64051467 634.86302116 231 670 C230.39929687 670.66386719 229.79859375 671.32773438 229.1796875 672.01171875 C199.83724679 703.32302453 151.61885296 714.21908573 110.37109375 715.875 C108.91417513 715.92043475 107.45712923 715.96191342 106 716 C105.19191895 716.02191406 104.38383789 716.04382812 103.55126953 716.06640625 C66.7106065 716.9035355 66.7106065 716.9035355 55 713 C53.94014745 692.29698875 53.87542822 671.63407842 53.93133545 650.91113281 C53.94176794 646.61914581 53.94617466 642.32715241 53.95117188 638.03515625 C53.96173435 629.6900873 53.97868374 621.3450484 54 613 C54.58119598 612.99191315 55.16239197 612.98382629 55.76119995 612.97549438 C93.45278717 612.8271736 93.45278717 612.8271736 131 610 C131.75974121 609.91024902 132.51948242 609.82049805 133.30224609 609.72802734 C142.56119509 608.54289848 149.56950714 605.73792502 157 600 C157.70511719 599.48695313 158.41023438 598.97390625 159.13671875 598.4453125 C174.54030688 586.27980675 181.55810267 566.05567164 184.58984375 547.36328125 C185.26573295 541.42999617 185.2242919 535.46428005 185.25 529.5 C185.270625 528.3346875 185.29125 527.169375 185.3125 525.96875 C185.37860592 510.89659917 181.72704417 497.06787746 177.25 482.8125 C176.7668686 481.25579615 176.28379763 479.69907353 175.80078125 478.14233398 C164.97194948 443.41902283 152.96583281 409.11972719 140.58731079 374.92297363 C137.90846709 367.52189358 135.2468819 360.11485454 132.59765625 352.703125 C113.95850762 300.59705224 94.49048264 248.79238493 75 197 C74.62742065 196.00967773 74.25484131 195.01935547 73.87097168 193.99902344 C53.51370552 139.89459976 32.84394083 85.90662652 11.96875 32 C11.56714661 30.96248093 11.16554321 29.92496185 10.75177002 28.85600281 C8.84554164 23.9315307 6.93767666 19.0077074 5.02636719 14.08520508 C4.35605793 12.35500443 3.68580697 10.6247812 3.015625 8.89453125 C2.70733765 8.10252319 2.39905029 7.31051514 2.0814209 6.49450684 C0 1.11348671 0 1.11348671 0 0 Z " fill="#000000" transform="translate(1634,1840)"/>
<path d="M0 0 C105.6 0 211.2 0 320 0 C318.77679308 145.56162407 318.77679308 145.56162407 318.125 210.77148438 C318.02837909 220.4385968 317.93545407 230.10574104 317.84381866 239.77290189 C317.76235676 248.34465003 317.67798817 256.91636664 317.59148407 265.48806536 C317.54101639 270.49550092 317.49166792 275.5029402 317.44555664 280.51041794 C317.4029001 285.13636148 317.3565689 289.76225483 317.30761719 294.38813591 C317.29060524 296.05155742 317.27480895 297.71499201 317.26049805 299.37843895 C317.1396894 313.27594797 316.55601309 327.09967266 316 341 C279.7 341 243.4 341 206 341 C206 304.04 206 267.08 206 229 C191.32030039 232.56949737 191.32030039 232.56949737 177.5 237.875 C176.38878784 238.38969849 176.38878784 238.38969849 175.25512695 238.91479492 C148.22951272 251.70304287 129.99218719 274.08450789 119.76123047 301.8515625 C116.37333258 311.41330126 113.89656639 321.10843892 111.85546875 331.0390625 C111.67512085 331.90635986 111.49477295 332.77365723 111.30895996 333.66723633 C110.87043153 335.77769987 110.43489791 337.88878534 110 340 C71.99005292 340.85334682 34.01796443 341.13682335 -4 341 C-2.18239206 301.87411275 -2.18239206 301.87411275 1 288 C1.15275391 287.30874023 1.30550781 286.61748047 1.46289062 285.90527344 C9.48827323 250.49447173 29.99075912 218.07571509 54.44921875 191.7734375 C56.50741887 189.53557826 58.4845353 187.26585207 60.4375 184.9375 C65.17178741 179.49475628 70.60285808 174.76692687 76 170 C76.50273438 169.55253418 77.00546875 169.10506836 77.5234375 168.64404297 C101.04557677 147.8108011 128.91262381 129.93944643 158 118 C149.79050747 116.96211892 141.63584307 116.82969672 133.37060547 116.79467773 C131.9208703 116.78507898 130.47113781 116.7750678 129.02140808 116.76467896 C125.11511734 116.73783989 121.20881477 116.71671781 117.30248404 116.69667697 C113.20921311 116.67468656 109.11597774 116.64736225 105.0227356 116.62062073 C97.2846993 116.5708692 89.54664309 116.52586591 81.80856812 116.48259836 C72.99348649 116.43307529 64.17844057 116.37821345 55.36339355 116.32291877 C37.24229538 116.20936827 19.12116291 116.10266081 1 116 C-1.57216398 77.41754032 0 38.66810342 0 0 Z " fill="#000000" transform="translate(663,2016)"/>
<path d="M0 0 C0.75935852 0.00215515 1.51871704 0.0043103 2.30108643 0.00653076 C28.15598044 0.1236867 52.43183718 4.82110687 75.75 16.3125 C76.90113281 16.8796875 78.05226563 17.446875 79.23828125 18.03125 C86.59060038 21.8326841 93.25453596 26.19020777 99.75 31.3125 C100.26030762 31.71452637 100.77061523 32.11655273 101.29638672 32.53076172 C138.03523092 61.76321999 161.25494549 108.14765104 167.75 154.3125 C170.15680076 178.86167962 169.91237942 203.62020473 169.91704226 228.26192379 C169.91831215 231.75251472 169.92282309 235.24309924 169.92713451 238.73368752 C169.94076043 250.09121526 169.94069609 261.44872492 169.93797541 272.80625868 C169.93749951 275.75306312 169.93765076 278.69986684 169.93803024 281.6466713 C169.94505507 337.51533199 169.67626092 393.37306872 168.84606981 449.2358613 C168.81254022 451.49728752 168.7794202 453.75871941 168.74639511 456.02015305 C168.62129498 464.56077977 168.49021464 473.10128699 168.34943008 481.64167023 C168.30758477 484.1816008 168.26642921 486.72154287 168.2260704 489.2614975 C168.16992705 492.7345421 168.10926355 496.20747808 168.04711914 499.68041992 C168.03201388 500.6421131 168.01690863 501.60380629 168.00134563 502.59464169 C167.80063404 513.18414499 167.23153476 523.71873523 166.75 534.3125 C132.1 534.3125 97.45 534.3125 61.75 534.3125 C61.75 505.95865985 61.75911191 477.62833596 62.10595703 449.28051758 C62.66413403 401.98245196 62.86281837 354.68751652 62.87283063 307.38662469 C62.87409966 301.79827463 62.87784177 296.20993013 62.88256836 290.62158203 C62.94585435 249.37637745 62.94585435 249.37637745 62.3671875 208.13671875 C62.35204227 207.37182444 62.33689705 206.60693012 62.32129288 205.81885719 C62.15336435 197.77475583 61.70557225 189.79199757 60.88330078 181.78833008 C60.81346922 181.06515689 60.74363766 180.3419837 60.67168999 179.59689617 C58.39803348 159.34093198 45.7630599 139.40771917 30.4296875 126.3671875 C8.15563198 109.28824697 -17.58915194 104.57924575 -45.18408203 107.63769531 C-50.97138523 108.48977542 -56.60939158 109.77473088 -62.25 111.3125 C-62.9188623 111.48910156 -63.58772461 111.66570312 -64.27685547 111.84765625 C-91.19713118 119.17290134 -114.9844085 137.55406853 -129.20263672 161.47363281 C-135.90802458 173.24635575 -138.4867288 183.65698123 -138.86669922 197.07714844 C-138.90429792 198.24293301 -138.94189663 199.40871758 -138.98063469 200.60982895 C-139.42252495 215.90263071 -139.39589094 231.20063266 -139.38422441 246.49842381 C-139.3822908 250.03132648 -139.38394294 253.56422423 -139.38556135 257.09712678 C-139.38989284 266.6158443 -139.38703543 276.13454666 -139.38056505 285.65326244 C-139.37588284 292.60303994 -139.3735124 299.55281507 -139.37231445 306.50259399 C-139.3595667 368.51771584 -139.0972267 430.52889613 -138.60595703 492.54199219 C-138.60062824 493.21489178 -138.59529945 493.88779138 -138.58980918 494.58108187 C-138.48438915 507.82495932 -138.36593754 521.06870581 -138.25 534.3125 C-173.56 534.3125 -208.87 534.3125 -245.25 534.3125 C-245.27505615 526.67125977 -245.3001123 519.03001953 -245.32592773 511.15722656 C-245.40765673 486.40108013 -245.49324606 461.64494839 -245.58111694 436.88882305 C-245.59487826 433.01084307 -245.60860659 429.13286298 -245.62231445 425.25488281 C-245.62504276 424.48319762 -245.62777106 423.71151243 -245.63058204 422.91644284 C-245.67405495 410.59838929 -245.7148865 398.28032844 -245.75465261 385.96226242 C-245.79585065 373.21990349 -245.84009332 360.47755746 -245.88687855 347.73521781 C-245.91291791 340.62143931 -245.93776003 333.50766185 -245.95907402 326.39386749 C-246.05009099 296.27953973 -246.24863538 266.16921198 -246.67620607 236.05777711 C-246.70663998 233.89572617 -246.73602956 231.73366326 -246.76518333 229.57159472 C-246.95224493 215.86728289 -247.18867717 202.16427502 -247.65892029 188.46636963 C-247.68771524 187.47881613 -247.7165102 186.49126262 -247.74617773 185.47378325 C-248.10764473 176.09260058 -249.5129717 167.67744225 -253.875 159.3125 C-254.4006958 158.28394897 -254.4006958 158.28394897 -254.93701172 157.23461914 C-258.04917221 151.33456834 -261.83453613 146.30796125 -266.25 141.3125 C-266.6934375 140.72726562 -267.136875 140.14203125 -267.59375 139.5390625 C-283.97619146 118.26186719 -312.47804135 108.66910609 -337.94921875 104.7421875 C-373.14323562 101.10276221 -414.38648506 118.78603543 -443.1333065 137.54121876 C-449.19715359 141.33824837 -453.93693626 142.01243955 -461.00219727 141.88012695 C-462.05397376 141.88072963 -463.10575026 141.8813323 -464.18939877 141.88195324 C-467.56562177 141.87824623 -470.94043293 141.84028902 -474.31640625 141.80078125 C-476.41206194 141.79342202 -478.50772682 141.78832594 -480.60339355 141.78552246 C-488.3399033 141.75939848 -496.07621579 141.68959193 -503.8125 141.625 C-529.7690625 141.4703125 -529.7690625 141.4703125 -556.25 141.3125 C-556.25 99.7325 -556.25 58.1525 -556.25 15.3125 C-545.73125 15.1475 -535.2125 14.9825 -524.375 14.8125 C-519.51418701 14.73418945 -519.51418701 14.73418945 -514.55517578 14.65429688 C-494.45047911 14.34283481 -474.35767577 14.26987642 -454.25 14.3125 C-454.25 31.8025 -454.25 49.2925 -454.25 67.3125 C-450.62 63.3525 -446.99 59.3925 -443.25 55.3125 C-441.6 53.6625 -439.95 52.0125 -438.25 50.3125 C-437.37649902 49.41289551 -437.37649902 49.41289551 -436.48535156 48.49511719 C-405.50681712 16.71982926 -357.94540579 1.59385033 -314.5004425 0.92747498 C-311.7919252 0.90019744 -309.08363161 0.88530389 -306.375 0.875 C-305.52366486 0.86864532 -304.67232971 0.86229065 -303.79519653 0.85574341 C-287.47633256 0.77993879 -271.17910741 2.30426164 -255.5 7.0625 C-254.6335083 7.31926514 -253.7670166 7.57603027 -252.87426758 7.84057617 C-229.46274333 15.00780922 -208.9947549 27.51339034 -191.25 44.3125 C-190.36570312 45.13234375 -189.48140625 45.9521875 -188.5703125 46.796875 C-178.34533446 56.58736388 -170.13970283 67.95754766 -163.25 80.3125 C-160.27101669 77.48476749 -157.90499017 74.55636426 -155.5625 71.1875 C-151.48974722 65.51581465 -147.04028346 60.3850532 -142.25 55.3125 C-141.59902344 54.59707031 -140.94804688 53.88164063 -140.27734375 53.14453125 C-128.61709841 40.81028329 -114.15820491 31.25496869 -99.25 23.3125 C-98.58597168 22.95849121 -97.92194336 22.60448242 -97.23779297 22.23974609 C-67.45598267 6.68077631 -33.42963744 -0.17266516 0 0 Z M-137.25 54.3125 C-138.17167969 55.17230469 -139.09335938 56.03210937 -140.04296875 56.91796875 C-148.91640885 65.39091508 -157.04277057 75.12723416 -162.25 86.3125 C-164.52649232 83.45977056 -166.35193135 80.45680516 -168.15454102 77.28759766 C-173.02416158 68.7855679 -178.73346646 61.59625582 -185.25 54.3125 C-186.28447266 53.07886719 -186.28447266 53.07886719 -187.33984375 51.8203125 C-192.38576657 45.85601109 -198.09810906 41.1019477 -204.25 36.3125 C-205.095625 35.60480469 -205.94125 34.89710937 -206.8125 34.16796875 C-241.38000545 6.28284444 -287.51863459 0.03794921 -330.49731445 3.78149414 C-333.77579084 4.15071981 -337.01075611 4.69834055 -340.25 5.3125 C-341.1049707 5.46847656 -341.95994141 5.62445312 -342.84082031 5.78515625 C-362.87439702 9.52715951 -381.33468011 15.59450818 -399.25 25.3125 C-400.41789062 25.92738281 -401.58578125 26.54226563 -402.7890625 27.17578125 C-423.46214609 38.4456451 -444.01324848 54.91791413 -456.25 75.3125 C-456.745 46.6025 -456.745 46.6025 -457.25 17.3125 C-488.93 17.3125 -520.61 17.3125 -553.25 17.3125 C-553.25 57.5725 -553.25 97.8325 -553.25 139.3125 C-536.79125 139.51875 -520.3325 139.725 -503.375 139.9375 C-495.63313232 140.07406006 -495.63313232 140.07406006 -487.73486328 140.21337891 C-483.03297675 140.24686116 -483.03297675 140.24686116 -478.33102417 140.26693726 C-476.26659467 140.28210842 -474.20224335 140.31688957 -472.13839722 140.36825562 C-457.38696864 140.71644756 -447.43633687 138.84401646 -435.12574005 130.52590561 C-432.23603866 128.65657416 -429.21203951 127.19816184 -426.11328125 125.703125 C-425.02966309 125.17912109 -423.94604492 124.65511719 -422.82958984 124.11523438 C-421.7514502 123.60283203 -420.67331055 123.09042969 -419.5625 122.5625 C-418.40186035 122.00884766 -417.2412207 121.45519531 -416.04541016 120.88476562 C-396.11588076 111.45165971 -375.47184626 103.52357654 -353.25 102.3125 C-352.07824219 102.24675781 -350.90648437 102.18101563 -349.69921875 102.11328125 C-320.58268134 101.26465855 -291.33010754 113.04188823 -270.14819336 132.89086914 C-248.96008127 153.57681889 -245.38661809 174.93044207 -244.70727539 203.34350586 C-244.68652454 204.19110784 -244.6657737 205.03870983 -244.64439404 205.91199672 C-243.97762197 234.06606753 -244.02374169 262.23423084 -243.95291793 290.39473975 C-243.93168484 298.76880276 -243.90532086 307.14284766 -243.87875474 315.51689517 C-243.83153912 330.44069776 -243.78815617 345.36450878 -243.74731445 360.28833008 C-243.70772118 374.75285492 -243.66624136 389.21737241 -243.62231445 403.68188477 C-243.61959018 404.57915976 -243.61686591 405.47643475 -243.61405908 406.40089989 C-243.60037572 410.90396164 -243.58665622 415.40702327 -243.57291877 419.91008484 C-243.45968053 457.04420853 -243.35344702 494.17834749 -243.25 531.3125 C-209.59 531.3125 -175.93 531.3125 -141.25 531.3125 C-141.26047363 521.12173584 -141.27094727 510.93097168 -141.28173828 500.43139648 C-141.31386442 467.79383169 -141.33609616 435.15626683 -141.35213066 402.51869031 C-141.35463196 397.44580978 -141.35722061 392.37292929 -141.35986328 387.30004883 C-141.36065021 385.7852232 -141.36065021 385.7852232 -141.36145304 384.23979504 C-141.37014648 367.9057754 -141.3859106 351.57176989 -141.40430559 335.23775863 C-141.42303418 318.46717304 -141.43412298 301.69659484 -141.43817699 284.92599922 C-141.44091591 274.58461291 -141.44955455 264.24326656 -141.46583293 253.90189255 C-141.47643636 246.80241111 -141.47959304 239.70295021 -141.47700275 232.60346144 C-141.47572668 228.51256251 -141.47762929 224.42173321 -141.48841095 220.33084679 C-141.49823525 216.57551707 -141.49857626 212.82030298 -141.49179779 209.06496764 C-141.4905696 207.08377314 -141.49911271 205.10257975 -141.50816262 203.12140554 C-141.4155376 174.9592273 -131.3985544 155.73455607 -111.80078125 135.82421875 C-88.40801181 113.34058535 -56.19155885 103.53638868 -24.29296875 104.1328125 C-3.01016932 104.77450495 16.34860559 111.70216506 32.75 125.3125 C33.33136719 125.74820312 33.91273438 126.18390625 34.51171875 126.6328125 C49.3857028 138.21302386 60.63740078 159.46671209 63.25636482 177.87085819 C63.84070599 182.70637111 64.09404725 187.54178781 64.30441284 192.40611267 C64.34654022 193.36533691 64.3886676 194.32456116 64.43207157 195.3128528 C64.85917272 205.81377878 64.89074913 216.30668745 64.87939453 226.81469727 C64.88075482 228.97243784 64.88253824 231.13017818 64.88470459 233.28791809 C64.88922377 239.10259749 64.88750704 244.91725892 64.8843255 250.7319386 C64.88175011 256.93969592 64.88415566 263.14745195 64.88571167 269.35520935 C64.88764403 280.51951066 64.88455803 291.68380516 64.87945233 302.84810513 C64.87506433 312.74192013 64.87578735 322.63572561 64.88037109 332.52954102 C64.92194551 424.38055903 64.92194551 424.38055903 64.51855469 466.64404297 C64.50384243 468.18565546 64.50384243 468.18565546 64.48883295 469.75841165 C64.28844829 490.27699842 64.00953813 510.79456927 63.75 531.3125 C97.08 531.3125 130.41 531.3125 164.75 531.3125 C165.60713959 502.46127114 165.60713959 502.46127114 166.16818237 473.60671997 C166.1775315 472.94740608 166.18688062 472.2880922 166.19651306 471.6087991 C166.21622085 470.21798992 166.23578786 468.82717874 166.25521421 467.4363656 C166.28600704 465.24411648 166.31761383 463.05188035 166.34943008 460.85964584 C166.49996687 450.46904228 166.64180585 440.0783347 166.77934217 429.6875515 C166.81262013 427.17844224 166.84619476 424.66933709 166.87982559 422.16023254 C167.55241425 371.8516279 167.9464022 321.54827601 167.9376502 271.23508167 C167.93750081 269.07422916 167.93797141 266.91337772 167.93867874 264.75252533 C167.9733715 225.81602075 167.9733715 225.81602075 167.3125 186.88671875 C167.29400183 186.16211708 167.27550365 185.43751541 167.25644493 184.69095612 C166.31545666 149.37819746 158.33387809 117.52921169 141.75 86.3125 C141.01523438 84.8584375 141.01523438 84.8584375 140.265625 83.375 C121.5770458 47.25774582 89.04857542 20.98943143 50.625 8.62890625 C46.04882893 7.26141763 41.4327411 6.23923443 36.75 5.3125 C36.05664551 5.16441895 35.36329102 5.01633789 34.64892578 4.86376953 C-24.64907727 -7.49607898 -94.04902658 12.08920066 -137.25 54.3125 Z " fill="#211D1E" transform="translate(1427.25,1823.6875)"/>
<path d="M0 0 C37.62 0 75.24 0 114 0 C120.88466246 18.35909989 120.88466246 18.35909989 124.03125 27.53125 C124.38414597 28.55384415 124.73704193 29.57643829 125.10063171 30.63002014 C125.84934414 32.8000863 126.59714941 34.97046565 127.34408569 37.1411438 C129.33547146 42.92771327 131.33414908 48.71176471 133.33203125 54.49609375 C133.73150467 55.65318344 134.13097809 56.81027313 134.54255676 58.00242615 C138.06427218 68.19847644 141.61776638 78.38317644 145.1875 88.5625 C145.75708822 90.18717163 146.32666828 91.81184611 146.89624023 93.43652344 C147.74741694 95.86442619 148.5985982 98.29232732 149.4499054 100.72018433 C152.35871922 109.01829404 155.25330061 117.32135264 158.1473999 125.62460327 C164.43778327 143.67153819 170.74671898 161.71193871 177.0625 179.75 C183.92479913 199.34895303 190.77921528 218.95063267 197.62316895 238.55599976 C201.74766582 250.37105526 205.87355874 262.18562345 210 274 C210.22605171 274.64721764 210.45210342 275.29443527 210.68500519 275.96126556 C223.04080362 311.33685146 235.4542602 346.69124195 248 382 C248.23200104 381.27672012 248.46400208 380.55344025 248.70303345 379.8082428 C269.89248837 313.77107529 269.89248837 313.77107529 281.13037109 281.39257812 C283.2801956 275.19734749 285.41503536 268.99697014 287.55078125 262.796875 C302.31812946 219.94517488 317.27535152 177.16166804 332.33483887 134.41186523 C335.15053185 126.41710307 337.95956143 118.42002141 340.765625 110.421875 C349.64826119 85.11244585 358.60806218 59.83251937 367.68359375 34.59155273 C368.06223068 33.53828796 368.44086761 32.48502319 368.83097839 31.39984131 C369.52290222 29.47577442 370.21531277 27.55188244 370.90840149 25.62823486 C373.97725982 17.09850505 376.98275773 8.5488531 380 0 C417.29 0 454.58 0 493 0 C483.7832472 27.6502584 483.7832472 27.6502584 479.37133789 39.71801758 C477.5958098 44.58236688 475.82641265 49.44890769 474.05915833 54.31626892 C473.27679675 56.47074867 472.49406623 58.62509448 471.71098328 60.77931213 C467.04016518 73.63059314 462.40385717 86.49431767 457.76709747 99.35791397 C456.8233112 101.97602082 455.87925005 104.59402851 454.93518066 107.21203327 C448.58940263 124.80960379 442.2506301 142.40969203 435.91629028 160.01138306 C429.85410355 176.85657242 423.78249151 193.69835212 417.70744324 210.5389061 C410.71601485 229.91975088 403.7277205 249.3017144 396.75 268.6875 C396.3845105 269.70290863 396.019021 270.71831726 395.64245605 271.76449585 C393.0947058 278.84290191 390.54730775 285.92143469 388 293 C385.08358459 301.10425711 382.1669974 309.20845235 379.25 317.3125 C378.88483276 318.3270224 378.51966553 319.3415448 378.14343262 320.3868103 C373.6359239 332.90899971 369.1248051 345.42988361 364.609375 357.94921875 C364.38016294 358.58473412 364.15095089 359.22024948 363.91479301 359.87502289 C361.5724292 366.36937094 359.22972279 372.86359523 356.88629436 379.3575592 C352.31498298 392.02552936 347.74728573 404.69475347 343.19921875 417.37109375 C339.16515753 428.61389455 335.11875304 439.85217042 331.05487061 451.08422852 C330.3563918 453.01489619 329.65834698 454.94572093 328.96075439 456.87670898 C264.64051467 634.86302116 264.64051467 634.86302116 231 670 C230.39929687 670.66386719 229.79859375 671.32773438 229.1796875 672.01171875 C199.83724679 703.32302453 151.61885296 714.21908573 110.37109375 715.875 C108.91417513 715.92043475 107.45712923 715.96191342 106 716 C105.19191895 716.02191406 104.38383789 716.04382812 103.55126953 716.06640625 C66.7106065 716.9035355 66.7106065 716.9035355 55 713 C53.94014745 692.29698875 53.87542822 671.63407842 53.93133545 650.91113281 C53.94176794 646.61914581 53.94617466 642.32715241 53.95117188 638.03515625 C53.96173435 629.6900873 53.97868374 621.3450484 54 613 C54.58119598 612.99191315 55.16239197 612.98382629 55.76119995 612.97549438 C93.45278717 612.8271736 93.45278717 612.8271736 131 610 C131.75974121 609.91024902 132.51948242 609.82049805 133.30224609 609.72802734 C142.56119509 608.54289848 149.56950714 605.73792502 157 600 C157.70511719 599.48695313 158.41023438 598.97390625 159.13671875 598.4453125 C174.54030688 586.27980675 181.55810267 566.05567164 184.58984375 547.36328125 C185.26573295 541.42999617 185.2242919 535.46428005 185.25 529.5 C185.270625 528.3346875 185.29125 527.169375 185.3125 525.96875 C185.37860592 510.89659917 181.72704417 497.06787746 177.25 482.8125 C176.7668686 481.25579615 176.28379763 479.69907353 175.80078125 478.14233398 C164.97194948 443.41902283 152.96583281 409.11972719 140.58731079 374.92297363 C137.90846709 367.52189358 135.2468819 360.11485454 132.59765625 352.703125 C113.95850762 300.59705224 94.49048264 248.79238493 75 197 C74.62742065 196.00967773 74.25484131 195.01935547 73.87097168 193.99902344 C53.51370552 139.89459976 32.84394083 85.90662652 11.96875 32 C11.56714661 30.96248093 11.16554321 29.92496185 10.75177002 28.85600281 C8.84554164 23.9315307 6.93767666 19.0077074 5.02636719 14.08520508 C4.35605793 12.35500443 3.68580697 10.6247812 3.015625 8.89453125 C2.70733765 8.10252319 2.39905029 7.31051514 2.0814209 6.49450684 C0 1.11348671 0 1.11348671 0 0 Z M4 3 C6.94023114 12.02604352 6.94023114 12.02604352 10.296875 20.90234375 C10.69366455 21.88259521 11.0904541 22.86284668 11.49926758 23.87280273 C11.91200928 24.88415283 12.32475098 25.89550293 12.75 26.9375 C16.88527371 37.17697325 20.87744648 47.45950979 24.78222656 57.78857422 C27.11588003 63.94271972 29.4700249 70.0890532 31.82162476 76.23635864 C32.6630292 78.43602645 33.50404859 80.63584112 34.3449707 82.83569336 C36.74156578 89.10397945 39.14147023 95.37090108 41.5546875 101.6328125 C43.74049992 107.31109185 45.89573899 113.000614 48.04614258 118.69238281 C53.06954087 132.01387951 53.06954087 132.01387951 58.3125 145.25 C60.31530633 150.18569081 62.13399097 155.15580526 63.875 160.1875 C66.34692996 167.33090995 69.07436686 174.34918288 71.93310547 181.34643555 C74.79226234 188.36982323 77.44253989 195.46733665 80.09210205 202.57150269 C81.43833435 206.17248178 82.79438521 209.76974492 84.1499939 213.36720276 C85.68806475 217.4494962 87.22329754 221.53285498 88.75854492 225.61621094 C89.5419329 227.69854021 90.32610746 229.78057373 91.11108398 231.86230469 C95.41590288 243.28064562 99.64768791 254.71392832 103.64596558 266.24353027 C105.85629887 272.61599974 108.16902343 278.94386411 110.5625 285.25 C111.13254761 286.76219116 111.13254761 286.76219116 111.71411133 288.30493164 C112.80718487 291.20413389 113.9030025 294.10228058 115 297 C118.32199992 305.77643873 121.57815784 314.56595134 124.67602539 323.42431641 C126.88491836 329.72372528 129.20181339 335.98096238 131.52612305 342.23852539 C133.49925915 347.57477341 135.35683199 352.93567814 137.078125 358.359375 C137.99806957 360.99447046 139.09535958 363.51965623 140.21044922 366.07666016 C141.65137465 369.5867438 142.77303738 373.20339153 143.9375 376.8125 C146.25774903 383.90882446 146.25774903 383.90882446 148.9375 390.875 C150.98440655 395.80813044 152.73928947 400.83442505 154.5 405.875 C154.78480225 406.68952637 155.06960449 407.50405273 155.36303711 408.34326172 C156.88902889 412.73271939 158.38088269 417.13207624 159.84375 421.54296875 C161.48923044 426.49684773 163.17375697 431.43617674 164.875 436.37109375 C165.12858276 437.10728943 165.38216553 437.84348511 165.64343262 438.60198975 C166.69133121 441.6433934 167.73964746 444.68464724 168.79101562 447.72485352 C172.03238261 457.10209602 175.15661854 466.49244325 178 476 C178.23460937 476.772229 178.46921875 477.54445801 178.7109375 478.34008789 C179.31434448 480.32886328 179.9086088 482.32012345 180.5 484.3125 C180.78037109 485.2396582 180.78037109 485.2396582 181.06640625 486.18554688 C181.73752232 488.45000805 182.36633544 490.72476005 183 493 C183.51167725 494.70772583 183.51167725 494.70772583 184.03369141 496.44995117 C186.81569909 506.15274203 187.57088547 515.2311734 187.41162109 525.30102539 C187.374861 527.69655845 187.37060556 530.09054034 187.37109375 532.48632812 C187.26443186 556.2772851 182.00089513 578.84520973 164.828125 596.26953125 C153.91865471 606.80229331 144.44377962 611.33466583 129.3125 612.6875 C127.4087561 612.86792847 127.4087561 612.86792847 125.46655273 613.05200195 C102.41089358 615.05125312 79.12500542 614.78127101 56 615 C55.84508829 637.37990145 56.12424166 659.74875986 56.5 682.125 C56.51793673 683.19342007 56.51793673 683.19342007 56.53623581 684.28342438 C56.68617498 693.18903143 56.84089877 702.09455167 57 711 C65.11706454 712.28265032 73.04050135 713.30839548 81.26171875 713.30078125 C82.62113335 713.3091803 82.62113335 713.3091803 84.00801086 713.31774902 C86.90135 713.32950836 89.79416273 713.32345779 92.6875 713.3125 C93.68144775 713.31067719 94.67539551 713.30885437 95.69946289 713.30697632 C118.32734548 713.23716805 139.98183308 711.47914108 161.90576172 705.5625 C163.7029388 705.07978888 165.5089836 704.6303079 167.31640625 704.1875 C186.41208946 699.40678841 206.38338519 689.16058677 221 676 C221.94866943 675.15574463 221.94866943 675.15574463 222.91650391 674.29443359 C233.55496247 664.67425295 241.21954373 654.58979225 248 642 C248.46825195 641.14583496 248.93650391 640.29166992 249.41894531 639.41162109 C262.54492708 615.37067182 273.52766732 590.28626239 284 565 C284.54783509 563.68459059 285.09602456 562.36932872 285.64453125 561.05419922 C294.08074774 540.82160121 302.19736879 520.48493869 310 500 C310.49658171 498.69759102 310.99316374 497.39518217 311.48974609 496.09277344 C314.29101754 488.74169608 317.07817487 481.38538154 319.85595703 474.02539062 C320.83485454 471.4367227 321.81963769 468.85046122 322.80859375 466.265625 C325.7056202 458.66738704 328.38837084 451.01663986 330.90942383 443.28637695 C332.48232359 438.47278509 334.19814422 433.73219837 336 429 C338.18788777 423.05652535 340.3216596 417.09445566 342.4375 411.125 C344.0565936 406.57470332 345.73965933 402.05992209 347.5 397.5625 C349.57920335 392.21783934 351.41544394 386.82403158 353.1953125 381.37524414 C354.61788825 377.0532756 356.23172758 372.85872359 357.96875 368.65625 C359.26785537 365.31006951 360.38557432 361.910818 361.5 358.5 C363.14312299 353.47104782 364.94235 348.55634432 366.96484375 343.66796875 C368.75638412 339.05052698 370.23601821 334.3261992 371.75390625 329.61328125 C373 326 373 326 374.46484375 322.60546875 C376.22644673 318.46816711 377.62224342 314.27678606 379 310 C380.76243885 304.52909607 382.73155236 299.28713708 385 294 C386.05690692 291.03914683 387.03089888 288.05308549 388 285.0625 C390.54560252 277.24670475 393.3711302 269.58829589 396.375 261.9375 C398.48865875 256.46610707 400.37443194 250.94963964 402.19482422 245.37670898 C403.61757423 241.05425362 405.23152961 236.85920256 406.96875 232.65625 C408.26785537 229.31006951 409.38557432 225.910818 410.5 222.5 C412.14312299 217.47104782 413.94235 212.55634432 415.96484375 207.66796875 C417.75638412 203.05052698 419.23601821 198.3261992 420.75390625 193.61328125 C422 190 422 190 423.46484375 186.60546875 C425.22644673 182.46816711 426.62224342 178.27678606 428 174 C429.76243885 168.52909607 431.73155236 163.28713708 434 158 C435.05690692 155.03914683 436.03089888 152.05308549 437 149.0625 C439.54560252 141.24670475 442.3711302 133.58829589 445.375 125.9375 C447.48865875 120.46610707 449.37443194 114.94963964 451.19482422 109.37670898 C452.61757423 105.05425362 454.23152961 100.85920256 455.96875 96.65625 C457.26785537 93.31006951 458.38557432 89.910818 459.5 86.5 C461.14312299 81.47104782 462.94235 76.55634432 464.96484375 71.66796875 C466.75638412 67.05052698 468.23601821 62.3261992 469.75390625 57.61328125 C471 54 471 54 472.46484375 50.60546875 C474.22644673 46.46816711 475.62224342 42.27678606 477 38 C477.49696077 36.45735095 477.99692536 34.91566609 478.5 33.375 C478.82484375 32.36566406 478.82484375 32.36566406 479.15625 31.3359375 C480.29955459 28.17067756 481.67429821 25.09330417 483 22 C484.98 15.73 486.96 9.46 489 3 C453.69 3 418.38 3 382 3 C380.02 8.28 378.04 13.56 376 19 C375.17757813 21.18625 374.35515625 23.3725 373.5078125 25.625 C369.12429143 37.32885657 364.92120726 49.05965037 361.03955078 60.93945312 C358.53970108 68.53020114 355.8086702 76.01854502 353 83.5 C349.8515903 91.88802061 346.8441806 100.29574952 344.0625 108.8125 C341.07705373 117.95237035 337.84342102 126.9861415 334.5 136 C330.38998934 147.08517044 326.52241478 158.22908741 322.83203125 169.4609375 C320.28499807 177.20575019 317.56911191 184.89034129 314.85449219 192.57763672 C313.41674521 196.65344401 311.9899193 200.73306683 310.5625 204.8125 C310.27479736 205.63371338 309.98709473 206.45492676 309.69067383 207.30102539 C308.15204527 211.69546437 306.62026332 216.0921701 305.09765625 220.4921875 C302.0325622 229.3440139 298.94486833 238.18414355 295.74291992 246.98754883 C291.677076 258.17106144 287.82151428 269.4094821 284.08691406 280.70776367 C280.71852083 290.89047777 277.26836597 301.04400001 273.79397583 311.19100952 C263.73463581 339.81456424 263.73463581 339.81456424 254.875 368.81640625 C254.23519484 371.14426877 253.56410009 373.4635945 252.875 375.77734375 C252.50375 377.02644531 252.1325 378.27554688 251.75 379.5625 C251.41484375 380.67753906 251.0796875 381.79257813 250.734375 382.94140625 C250.05511435 385.77045458 249.84922405 388.10833269 250 391 C247.03142642 389.51571321 246.97315097 387.54734771 245.93359375 384.4375 C245.53527344 383.26123047 245.13695312 382.08496094 244.7265625 380.87304688 C244.51676758 380.24261475 244.30697266 379.61218262 244.09082031 378.96264648 C242.980246 375.62635841 241.84572498 372.29819725 240.71484375 368.96875 C240.48570282 368.29187134 240.25656189 367.61499268 240.02047729 366.91760254 C237.92783259 360.74877331 235.72841541 354.6210336 233.5 348.5 C229.85060311 338.44184731 226.34206366 328.33970899 222.87109375 318.21875 C219.80419737 309.29172237 216.66883482 300.39123861 213.5 291.5 C208.63685663 277.84968173 203.89273824 264.16036442 199.18652344 250.45507812 C194.22377501 236.00388147 189.22180236 221.56985648 184.0625 207.1875 C178.48137384 191.62557507 173.1122198 175.99290353 167.75 160.35449219 C163.2402631 147.20931378 158.69452195 134.08047853 154 121 C148.43758816 105.50129543 143.0908685 89.93063446 137.75 74.35449219 C132.36042258 58.64471612 126.88210578 42.97142025 121.26953125 27.33984375 C119.8554303 23.39984556 118.4538743 19.45609775 117.07421875 15.50390625 C116.65221191 14.29589355 116.65221191 14.29589355 116.22167969 13.06347656 C115.71597348 11.61185415 115.21254534 10.15943513 114.71191406 8.70605469 C113.78597904 5.60760387 113.78597904 5.60760387 112 3 C110.59588683 2.9045307 109.18700191 2.87811471 107.77964783 2.87974548 C106.86954453 2.87837082 105.95944122 2.87699615 105.02175903 2.87557983 C104.01547455 2.87917511 103.00919006 2.88277039 101.97241211 2.88647461 C100.91888046 2.88632858 99.86534882 2.88618256 98.77989197 2.8860321 C95.279022 2.88673174 91.77820448 2.89452652 88.27734375 2.90234375 C85.85738657 2.90420775 83.43742901 2.90563174 81.01747131 2.90663147 C74.63384976 2.91045808 68.25025079 2.92028959 61.86663818 2.93133545 C55.35836086 2.94154649 48.8500799 2.94612843 42.34179688 2.95117188 C29.56118825 2.96191173 16.78059533 2.97879888 4 3 Z " fill="#201D1D" transform="translate(1634,1840)"/>
<path d="M0 0 C1.00345459 -0.00701431 2.00690918 -0.01402863 3.04077148 -0.02125549 C6.26681038 -0.0386847 9.49266573 -0.04510907 12.71875 -0.046875 C13.82033447 -0.04754974 14.92191895 -0.04822449 16.05688477 -0.04891968 C32.31849403 -0.03307506 48.16451971 0.39086673 64.21875 3.203125 C65.22550781 3.36941406 66.23226562 3.53570313 67.26953125 3.70703125 C90.95454939 7.68894588 113.70671864 14.47334932 135.21875 25.203125 C135.91564941 25.54875488 136.61254883 25.89438477 137.33056641 26.25048828 C171.59556454 43.42825698 200.36494407 70.90653904 219.14648438 104.29785156 C219.86099601 105.56744374 220.58367491 106.83247412 221.31445312 108.09277344 C241.60468715 143.18020635 251.42389345 184.94556343 251.3515625 225.296875 C251.35299759 227.13529968 251.35299759 227.13529968 251.35446167 229.01086426 C251.35513851 231.60262097 251.35331905 234.19437942 251.34912109 236.78613281 C251.3438776 240.61006864 251.34902448 244.43388083 251.35546875 248.2578125 C251.34509863 268.60399222 250.76897671 288.84473685 250.21875 309.203125 C126.79875 309.203125 3.37875 309.203125 -123.78125 309.203125 C-110.51318165 358.48452174 -91.63235179 406.86304208 -45.66015625 434.06005859 C-14.86854354 451.41576055 22.68160592 453.11083289 56.37011719 444.20263672 C85.63387459 435.96045917 110.36070406 421.23696106 132.21875 400.203125 C132.89808594 399.58695313 133.57742188 398.97078125 134.27734375 398.3359375 C139.85045262 393.12201028 144.29291327 387.03924284 148.82788086 380.92919922 C149.36678955 380.20619629 149.90569824 379.48319336 150.4609375 378.73828125 C150.9441748 378.082229 151.42741211 377.42617676 151.92529297 376.75024414 C153.21875 375.203125 153.21875 375.203125 155.21875 374.203125 C156.84082031 374.96899414 156.84082031 374.96899414 158.796875 376.23828125 C159.53397705 376.71056152 160.2710791 377.1828418 161.03051758 377.66943359 C162.23744263 378.45954834 162.23744263 378.45954834 163.46875 379.265625 C165.20701601 380.38413827 166.94529788 381.50262689 168.68359375 382.62109375 C169.59351074 383.21067871 170.50342773 383.80026367 171.44091797 384.40771484 C175.04959782 386.74013105 178.67607558 389.04389708 182.30371094 391.34667969 C185.0648973 393.09948435 187.82375254 394.85590508 190.58203125 396.61328125 C194.3908366 399.03947898 198.20076411 401.46389841 202.01171875 403.88671875 C212.09762101 410.29949247 222.17503999 416.72441786 232.21875 423.203125 C227.49712767 443.66348844 213.88105739 462.66134675 200.21875 478.203125 C199.39503906 479.14800781 198.57132813 480.09289063 197.72265625 481.06640625 C192.85385245 486.54288419 187.88876156 491.56916207 182.21875 496.203125 C181.72342773 496.62142578 181.22810547 497.03972656 180.71777344 497.47070312 C144.10386844 528.38720071 98.55925487 544.41365921 51.21875 549.203125 C49.86765137 549.3434314 49.86765137 549.3434314 48.48925781 549.48657227 C-14.68721501 555.21161805 -81.86986159 543.14005473 -132.65625 502.765625 C-134.3843099 501.26724395 -136.09110164 499.74414262 -137.78125 498.203125 C-138.61849609 497.45192383 -138.61849609 497.45192383 -139.47265625 496.68554688 C-153.24767458 484.29972891 -165.70572359 471.05662348 -176.78125 456.203125 C-177.25385254 455.57631836 -177.72645508 454.94951172 -178.21337891 454.30371094 C-204.85637766 418.73819874 -221.1147522 376.76830295 -228.78125 333.203125 C-228.95624023 332.28595703 -229.13123047 331.36878906 -229.31152344 330.42382812 C-243.87321594 252.39622436 -221.81959551 159.61489503 -177.37548828 94.65039062 C-171.6401005 86.4230253 -165.46225987 78.6773458 -158.78125 71.203125 C-158.29124512 70.65140625 -157.80124023 70.0996875 -157.29638672 69.53125 C-117.75401338 25.19701721 -59.2959688 0.27797373 0 0 Z M-118.78125 39.203125 C-119.77511719 39.90695312 -120.76898437 40.61078125 -121.79296875 41.3359375 C-137.92446224 53.10243863 -152.44649694 66.4768549 -164.78125 82.203125 C-165.54824219 83.1415625 -166.31523437 84.08 -167.10546875 85.046875 C-178.18515475 98.89202208 -187.34259288 114.2509462 -194.87060547 130.2890625 C-195.78148527 132.2036195 -196.73121396 134.09413317 -197.69140625 135.984375 C-207.84890912 156.28923592 -214.62664774 178.14920784 -219.78125 200.203125 C-220.00119629 201.11271973 -220.22114258 202.02231445 -220.44775391 202.95947266 C-225.99404034 225.98693777 -229.44853592 249.50393941 -229.78125 273.203125 C-229.80171387 274.42467285 -229.82217773 275.6462207 -229.84326172 276.90478516 C-230.08761892 292.73519851 -230.29566928 308.52799978 -227.78125 324.203125 C-227.61995605 325.21648926 -227.45866211 326.22985352 -227.29248047 327.27392578 C-218.6722713 379.95811745 -197.68520359 430.2095199 -161.78125 470.203125 C-161.33716797 470.70215332 -160.89308594 471.20118164 -160.43554688 471.71533203 C-157.27246096 475.26413238 -154.04967424 478.75123412 -150.78125 482.203125 C-150.31106445 482.70199219 -149.84087891 483.20085938 -149.35644531 483.71484375 C-117.21037753 517.58030175 -71.9696727 536.58308736 -26.78125 545.203125 C-25.58072998 545.4508667 -25.58072998 545.4508667 -24.35595703 545.70361328 C9.35905252 552.56294723 48.7876419 549.45528366 82.03808594 541.70605469 C84.18946728 541.20987852 86.34606241 540.75327788 88.5078125 540.3046875 C139.81266101 529.38876228 186.48093944 498.07362162 215.21875 454.203125 C224.73023904 440.05729797 224.73023904 440.05729797 229.21875 424.203125 C227.77188363 423.01041654 227.77188363 423.01041654 225.8359375 421.875 C225.09239014 421.4123877 224.34884277 420.94977539 223.58276367 420.47314453 C222.76138916 419.97153809 221.94001465 419.46993164 221.09375 418.953125 C219.33688846 417.8625446 217.5803921 416.77137575 215.82421875 415.6796875 C214.9017334 415.10895508 213.97924805 414.53822266 213.02880859 413.95019531 C208.46473141 411.11261613 203.93634997 408.21952256 199.40625 405.328125 C197.56261739 404.15346157 195.71886617 402.97898428 193.875 401.8046875 C192.95074219 401.2159082 192.02648438 400.62712891 191.07421875 400.02050781 C188.1342843 398.14936622 185.19238618 396.28134604 182.25 394.4140625 C181.27135986 393.79257324 180.29271973 393.17108398 179.28442383 392.53076172 C177.42798359 391.35192453 175.57108392 390.17381038 173.71362305 388.99658203 C172.86324463 388.45630371 172.01286621 387.91602539 171.13671875 387.359375 C170.3173584 386.84117187 169.49799805 386.32296875 168.65380859 385.7890625 C166.98777362 384.70398498 165.34536449 383.58199005 163.72509766 382.4296875 C162.93538574 381.87023438 162.14567383 381.31078125 161.33203125 380.734375 C160.63505127 380.22455078 159.93807129 379.71472656 159.2199707 379.18945312 C157.26503262 378.00611404 157.26503262 378.00611404 155.06469727 378.42138672 C152.33886211 379.57574781 151.45004165 381.36417536 149.84375 383.828125 C125.52889281 418.66732337 85.78289901 441.44939348 44.57226562 449.68603516 C9.93066209 455.78095357 -26.27622276 450.45647649 -55.71875 430.828125 C-62.20731629 426.09567639 -68.007891 420.76416811 -73.78125 415.203125 C-74.53792969 414.52121094 -75.29460938 413.83929687 -76.07421875 413.13671875 C-97.53127884 393.16484679 -110.11519914 363.99247936 -119.03125 336.640625 C-119.34860107 335.67294189 -119.66595215 334.70525879 -119.99291992 333.70825195 C-122.8684352 324.58746511 -124.68183569 315.6504894 -126.78125 306.203125 C-3.03125 306.203125 120.71875 306.203125 248.21875 306.203125 C249.44841128 172.36860565 249.44841128 172.36860565 185.21875 64.203125 C184.54585937 63.47867187 183.87296875 62.75421875 183.1796875 62.0078125 C163.42818691 41.24772465 136.04452765 26.36957522 109.21875 17.203125 C108.18234375 16.78933594 107.1459375 16.37554688 106.078125 15.94921875 C37.40220798 -11.03060579 -58.59028534 -3.86930843 -118.78125 39.203125 Z " fill="#201D1E" transform="translate(3200.78125,1821.796875)"/>
<path d="M0 0 C38.31626804 35.88737986 54.73957811 89.83832937 56.48062134 140.85891724 C56.8963779 155.23495287 56.84367164 169.61954354 56.84624147 184.00033188 C56.8475075 187.68094999 56.85201466 191.36156197 56.85633373 195.04217756 C56.8699673 206.99938145 56.86989633 218.95656821 56.86717463 230.91377783 C56.86669904 234.01141348 56.86684975 237.10904845 56.86722946 240.20668411 C56.87405867 297.23797758 56.63751134 354.25877093 55.77526903 411.28397226 C55.74170623 413.50978901 55.70859558 415.73561209 55.67559433 417.96143723 C55.53207235 427.6120073 55.37709926 437.26233235 55.21435547 446.91259766 C55.18510798 448.71731285 55.18510798 448.71731285 55.15526962 450.55848694 C55.09943224 453.94084529 55.03870137 457.32307902 54.97631836 460.70532227 C54.9612131 461.65014686 54.94610785 462.59497145 54.93054485 463.56842709 C54.75313572 472.59803736 54.18139188 481.53328598 53.67919922 490.57275391 C19.35919922 490.57275391 -14.96080078 490.57275391 -50.32080078 490.57275391 C-50.31556396 481.53650635 -50.31032715 472.50025879 -50.30493164 463.19018555 C-50.2888216 434.15162468 -50.2777327 405.1130638 -50.26973545 376.07449961 C-50.26848501 371.55056158 -50.26719066 367.02662356 -50.26586914 362.50268555 C-50.26560683 361.6021949 -50.26534452 360.70170425 -50.26507426 359.77392601 C-50.26074385 345.26593259 -50.25287103 330.75794319 -50.24364799 316.24995214 C-50.23423786 301.32119922 -50.22872973 286.39244838 -50.22671229 271.46369261 C-50.22535221 262.28011786 -50.22108512 253.09655452 -50.21288431 243.91298329 C-50.20752567 237.58288192 -50.20601677 231.25278629 -50.2072994 224.92268283 C-50.20792883 221.29133405 -50.20708932 217.66000494 -50.20159531 214.02865982 C-50.18013178 199.04311122 -50.31816246 184.07302634 -50.76539612 169.09446716 C-50.80419166 167.77658237 -50.84298719 166.45869757 -50.88295835 165.10087687 C-51.87429139 134.59549611 -57.15133488 107.68320453 -79.78393555 85.58300781 C-84.54249017 81.15123724 -89.64215593 77.70231818 -95.32080078 74.57275391 C-96.11873047 74.11384766 -96.91666016 73.65494141 -97.73876953 73.18212891 C-123.40486759 59.28140369 -155.3947297 61.60942401 -182.59350586 69.32470703 C-208.43486965 77.27501973 -229.84084389 93.00043974 -243.32080078 116.57275391 C-249.98879392 129.25313414 -251.4521774 142.32837057 -251.890625 156.41796875 C-251.93160749 157.68201727 -251.97258999 158.94606579 -252.01481438 160.24841881 C-252.47158227 175.22823177 -252.46723146 190.21005885 -252.4550252 205.19543147 C-252.45308779 208.51115831 -252.45474499 211.82687995 -252.45636213 215.14260668 C-252.46067997 224.05303138 -252.45785228 232.96343984 -252.45136583 241.87386268 C-252.44667331 248.37844338 -252.44431128 254.88302154 -252.44311523 261.38760376 C-252.43116237 315.87650203 -252.20611929 370.36032315 -251.67675781 424.84667969 C-251.66517324 426.04365069 -251.65358868 427.2406217 -251.64165306 428.47386456 C-251.58825662 433.9531957 -251.53309855 439.43249397 -251.47323608 444.91175842 C-251.31520854 460.13485272 -251.32080078 475.34611465 -251.32080078 490.57275391 C-286.30080078 490.57275391 -321.28080078 490.57275391 -357.32080078 490.57275391 C-357.31556396 481.52716064 -357.31032715 472.48156738 -357.30493164 463.16186523 C-357.28881216 434.07343749 -357.27772871 404.98500972 -357.26973545 375.89657866 C-357.26848505 371.36277443 -357.2671907 366.82897022 -357.26586914 362.29516602 C-357.26560683 361.392734 -357.26534452 360.49030198 -357.26507426 359.56052353 C-357.26074711 345.03259952 -357.25287617 330.50467955 -357.24364799 315.97675792 C-357.23422863 301.02086538 -357.22872783 286.06497492 -357.22671229 271.10907954 C-357.2254746 262.72922337 -357.22252126 254.34937563 -357.21507072 245.96952248 C-350.71214916 163.19790327 -350.71214916 163.19790327 -380.60205078 91.22119141 C-381.49923828 90.34720703 -382.39642578 89.47322266 -383.32080078 88.57275391 C-384.07361328 87.82251953 -384.82642578 87.07228516 -385.60205078 86.29931641 C-402.62645731 70.20014936 -428.48108602 62.80398394 -451.6015625 63.17041016 C-482.26704363 64.35580982 -508.9899946 75.88037544 -530.28564453 98.19775391 C-559.0593913 129.49268023 -561.49550233 168.18062021 -561.4368664 208.46904469 C-561.43250291 212.23703308 -561.43401247 216.00502004 -561.43476868 219.77301025 C-561.43529021 226.28360407 -561.43218236 232.79418778 -561.42653084 239.30477905 C-561.41836529 248.71772333 -561.41579546 258.13066278 -561.41454285 267.54361022 C-561.41236023 282.81960358 -561.40572167 298.09559158 -561.39624023 313.37158203 C-561.38704561 328.20100884 -561.37997483 343.03043419 -561.37573242 357.85986328 C-561.37533834 359.23354987 -561.37533834 359.23354987 -561.37493629 360.63498771 C-561.37363115 365.2297515 -561.37236746 369.82451529 -561.37112439 374.4192791 C-561.36077641 412.47044113 -561.3431797 450.52159716 -561.32080078 488.57275391 C-563.4112193 488.73688705 -565.50171187 488.90007717 -567.59223557 489.06286526 C-568.75637065 489.15384218 -569.92050573 489.2448191 -571.11991763 489.33855289 C-574.3733252 489.57659699 -577.61093075 489.72500174 -580.87255859 489.77807617 C-581.98632874 489.79802139 -583.10009888 489.81796661 -584.24761963 489.83851624 C-585.41130066 489.85522873 -586.57498169 489.87194122 -587.77392578 489.88916016 C-589.03122498 489.90994125 -590.28852417 489.93072235 -591.58392334 489.95213318 C-594.23953361 489.99512868 -596.89511215 490.0366272 -599.55078125 490.07543945 C-603.49115009 490.1331668 -607.43135202 490.19956036 -611.37158203 490.26611328 C-630.36142556 490.56416015 -649.32353316 490.57275391 -668.32080078 490.57275391 C-668.32080078 319.63275391 -668.32080078 148.69275391 -668.32080078 -27.42724609 C-634.99080078 -27.42724609 -601.66080078 -27.42724609 -567.32080078 -27.42724609 C-567.32080078 -9.60724609 -567.32080078 8.21275391 -567.32080078 26.57275391 C-564.68080078 23.27275391 -562.04080078 19.97275391 -559.32080078 16.57275391 C-527.03642541 -18.81034499 -480.99912056 -38.86963569 -433.32080078 -41.42724609 C-385.22552812 -43.03363923 -340.52622987 -32.4198868 -304.48876953 1.08447266 C-293.45054547 11.64435043 -283.18654845 23.81228917 -276.32080078 37.57275391 C-276.32080078 38.23275391 -276.32080078 38.89275391 -276.32080078 39.57275391 C-273.82431612 37.32352492 -272.00217304 34.75685636 -270.11206055 31.99169922 C-243.68354679 -6.59298568 -200.60308187 -29.73121201 -155.32080078 -38.42724609 C-148.67918196 -39.62232413 -142.01659389 -40.59280647 -135.32080078 -41.42724609 C-134.28310547 -41.56001953 -133.24541016 -41.69279297 -132.17626953 -41.82958984 C-83.22968655 -46.94132169 -36.3540575 -33.32536687 0 0 Z M-245.19580078 6.56884766 C-247.19585744 8.4549305 -249.26479076 10.19750051 -251.38330078 11.94775391 C-259.2259025 18.81396746 -272.65756244 32.7876928 -274.32080078 43.57275391 C-274.98080078 43.57275391 -275.64080078 43.57275391 -276.32080078 43.57275391 C-276.56185547 42.73615234 -276.80291016 41.89955078 -277.05126953 41.03759766 C-278.5076534 37.06279 -280.39350823 33.71117123 -282.63330078 30.13525391 C-283.06626465 29.44367188 -283.49922852 28.75208984 -283.9453125 28.03955078 C-288.98682654 20.22440546 -295.02477691 13.38875223 -301.32080078 6.57275391 C-301.98337891 5.82767578 -302.64595703 5.08259766 -303.32861328 4.31494141 C-314.15587562 -7.28916487 -328.15335326 -16.45294184 -342.32080078 -23.42724609 C-343.47974854 -23.99934814 -343.47974854 -23.99934814 -344.66210938 -24.58300781 C-363.88974347 -33.86940747 -384.7318798 -39.47934128 -406.13720703 -39.66552734 C-407.0631366 -39.67523056 -407.98906616 -39.68493378 -408.9430542 -39.69493103 C-411.92318077 -39.71977218 -414.90308115 -39.73244361 -417.88330078 -39.73974609 C-418.89701752 -39.7423645 -419.91073425 -39.74498291 -420.95516968 -39.74768066 C-435.85186841 -39.75181449 -449.81587282 -39.05826414 -464.32080078 -35.42724609 C-465.77042308 -35.10803374 -467.22093119 -34.79281332 -468.67236328 -34.48193359 C-507.95698055 -25.76742075 -544.90809901 -2.20502857 -568.32080078 30.57275391 C-568.65080078 11.76275391 -568.98080078 -7.04724609 -569.32080078 -26.42724609 C-601.67882613 -26.58206918 -633.94250425 -25.94118731 -666.32080078 -25.42724609 C-666.32080078 144.19275391 -666.32080078 313.81275391 -666.32080078 488.57275391 C-614.80080457 488.61880564 -614.80080457 488.61880564 -563.32080078 487.57275391 C-562.37450366 471.07372374 -562.19420999 454.62750054 -562.2487123 438.10402119 C-562.25938546 434.5014271 -562.26386423 430.89882431 -562.26904297 427.29621887 C-562.27866855 421.07715313 -562.29167897 414.85810237 -562.30676651 408.63904762 C-562.33036201 398.79002733 -562.34320134 388.94100572 -562.35446167 379.09196472 C-562.35846111 375.7075662 -562.36252999 372.32316776 -562.36662102 368.93876934 C-562.36764025 368.09345378 -562.36865947 367.24813823 -562.36970959 366.37720704 C-562.3814063 356.79728574 -562.39529752 347.21736806 -562.41015625 337.63745117 C-562.41150868 336.7636729 -562.41286112 335.88989463 -562.41425453 334.98963823 C-562.43645688 320.81629947 -562.46634193 306.64298429 -562.49812366 292.46966425 C-562.53060214 277.85895222 -562.55140694 263.24825253 -562.56239593 248.63750857 C-562.56958053 239.65660111 -562.58614918 230.67581241 -562.61519669 221.69494858 C-562.63431075 215.53709055 -562.64227924 209.37927934 -562.64179172 203.22139195 C-562.6418542 199.68066793 -562.64661467 196.14012964 -562.66495895 192.59944916 C-562.83680352 154.44062847 -554.53412191 120.92507431 -527.32080078 92.57275391 C-504.47438534 70.06296086 -476.6247354 62.31364249 -445.17724609 62.25366211 C-435.92002476 62.35531054 -428.08728479 63.60847716 -419.32080078 66.57275391 C-418.13744141 66.93498047 -416.95408203 67.29720703 -415.73486328 67.67041016 C-395.39255597 74.29400912 -377.17747796 87.33158204 -366.98193359 106.4609375 C-359.17337745 121.90509873 -357.24377548 136.45185351 -356.76539612 153.5766449 C-356.74440542 154.29565904 -356.72341473 155.01467318 -356.70178796 155.75547563 C-356.25480551 171.26567642 -356.1823433 186.77176757 -356.20473516 202.28759015 C-356.20916767 206.1663918 -356.20758445 210.04519249 -356.20683289 213.92399597 C-356.20631553 220.60071789 -356.20937837 227.27742983 -356.21507072 233.95414925 C-356.22329482 243.60685243 -356.22581194 253.25955094 -356.22705872 262.91225725 C-356.22923237 278.58367877 -356.23584607 294.25509501 -356.24536133 309.92651367 C-356.25457953 325.1247556 -356.26163863 340.32299607 -356.26586914 355.52124023 C-356.26626323 356.93303231 -356.26626323 356.93303231 -356.26666527 358.37334544 C-356.26797057 363.09634916 -356.26923422 367.81935288 -356.27047718 372.54235661 C-356.28079714 411.55249374 -356.29920656 450.56262107 -356.32080078 489.57275391 C-322.33080078 489.57275391 -288.34080078 489.57275391 -253.32080078 489.57275391 C-253.33127441 479.42275635 -253.34174805 469.27275879 -253.35253906 458.81518555 C-253.38467395 426.29788003 -253.40690068 393.78057444 -253.42293144 361.26325715 C-253.4254327 356.20797543 -253.42802136 351.15269376 -253.43066406 346.09741211 C-253.43145099 344.58785934 -253.43145099 344.58785934 -253.43225382 343.04781055 C-253.44094421 326.776574 -253.45670663 310.50535167 -253.47510637 294.23412354 C-253.49384349 277.52454897 -253.50492555 260.81498181 -253.50897777 244.10539716 C-253.51171493 233.80393888 -253.52034392 223.50252075 -253.53663372 213.20107483 C-253.54724769 206.12634144 -253.55039146 199.05162866 -253.54780354 191.97688789 C-253.54652908 187.90194316 -253.54841117 183.82706836 -253.55921173 179.75213623 C-253.63471155 149.73223486 -253.68393037 120.27295526 -231.22705078 97.64697266 C-229.09524547 95.79684407 -229.09524547 95.79684407 -229.32080078 93.57275391 C-228.72912109 93.30591797 -228.13744141 93.03908203 -227.52783203 92.76416016 C-225.28275703 91.55221702 -223.83024225 90.28193492 -222.00830078 88.51025391 C-196.71694581 66.14248676 -161.8076011 61.04045805 -129.32080078 62.57275391 C-106.58912154 64.69308155 -85.74201241 74.88897135 -71.00830078 92.38525391 C-51.61614005 118.15964475 -50.16030383 143.50973323 -49.32080078 174.57275391 C-49.2988842 175.38194275 -49.27696762 176.19113159 -49.2543869 177.02484131 C-48.27739465 213.56786723 -48.15911947 250.10172782 -48.19022775 286.6546073 C-48.19498123 292.24695213 -48.19729907 297.83929398 -48.19848633 303.43164062 C-48.20962263 347.38300448 -48.38806921 391.32846145 -48.96484375 435.27661133 C-48.97642832 436.16450505 -48.98801289 437.05239878 -48.9999485 437.96719837 C-49.05278144 441.98586405 -49.10760444 446.00447163 -49.16836548 450.02302551 C-49.35493653 463.21027493 -49.32080078 476.37871042 -49.32080078 489.57275391 C-15.66080078 489.57275391 17.99919922 489.57275391 52.67919922 489.57275391 C53.53948723 462.2802752 53.53948723 462.2802752 54.09738159 434.98422241 C54.12603617 433.04672182 54.12603617 433.04672182 54.15526962 431.0700798 C54.16969581 430.07917225 54.16969581 430.07917225 54.18441343 429.06824636 C54.21521949 426.96292417 54.24682731 424.85761526 54.2786293 422.75230789 C54.4297041 412.72805253 54.57140932 402.7036815 54.70854139 392.6792264 C54.74180849 390.25228213 54.77538948 387.82534236 54.80902481 385.39840317 C55.52355799 333.68795797 55.8750632 281.98317205 55.86684942 230.26782656 C55.86669981 227.89462403 55.86717157 225.52142248 55.86787796 223.14822006 C55.95993075 182.19559993 55.95993075 182.19559993 55.24169922 141.25244141 C55.20477463 139.99397903 55.16785004 138.73551666 55.12980652 137.43891907 C53.69745155 96.83459096 41.8516764 56.65798803 17.67919922 23.57275391 C17.10661377 22.78022217 17.10661377 22.78022217 16.52246094 21.97167969 C5.5519625 6.92504719 -7.50046071 -6.50563282 -23.32080078 -16.42724609 C-23.88476562 -16.78222168 -24.44873047 -17.13719727 -25.02978516 -17.50292969 C-37.9445473 -25.50286644 -51.3535778 -31.08469088 -65.94580078 -35.23974609 C-66.95811768 -35.52986572 -67.97043457 -35.81998535 -69.01342773 -36.11889648 C-83.15519085 -39.97781004 -97.00357664 -40.83784176 -111.57080078 -40.80224609 C-112.44930695 -40.80136993 -113.32781311 -40.80049377 -114.23294067 -40.79959106 C-161.06075645 -40.64615124 -210.51337211 -26.18026996 -245.19580078 6.56884766 Z " fill="#1E1B1B" transform="translate(2841.32080078125,1871.42724609375)"/>
<path d="M0 0 C15.87753812 15.09459785 28.84255245 32.23746813 38.90478516 51.70410156 C39.93629196 53.68985563 41.00033166 55.65412395 42.07421875 57.6171875 C60.00645293 91.05897087 67.75951916 130.26054496 67.42578125 167.91796875 C67.42083667 170.10988565 67.41755132 172.30180684 67.41581726 174.49372864 C67.4082756 179.02713096 67.38800424 183.56020629 67.35668945 188.09350586 C67.31666752 193.89565688 67.29899579 199.69759957 67.28938007 205.49987316 C67.27942139 211.07676613 67.25959168 216.65360926 67.23828125 222.23046875 C67.2348855 223.28389151 67.23148975 224.33731426 67.2279911 225.42265892 C67.21640079 228.39796282 67.19788804 231.37313722 67.17700195 234.34838867 C67.17431305 235.22261475 67.17162415 236.09684082 67.16885376 236.99755859 C67.16169846 237.81109299 67.15454315 238.62462738 67.14717102 239.46281433 C67.1407608 240.51196408 67.1407608 240.51196408 67.13422108 241.58230877 C66.96785391 244.34663314 66.45527441 247.08085353 66 249.8125 C-57.09 249.8125 -180.18 249.8125 -307 249.8125 C-295.87278083 296.1759132 -276.75184168 345.93920092 -234.078125 372.2890625 C-201.49558514 391.6181599 -164.4449135 394.65579826 -128 385.8125 C-87.98402108 374.98121422 -53.19963357 350.23614635 -30 315.8125 C-24.24278958 317.325613 -19.87935587 320.28926944 -15 323.5625 C-13.20640681 324.74712039 -11.41211104 325.93067757 -9.6171875 327.11328125 C-8.69131836 327.72510254 -7.76544922 328.33692383 -6.81152344 328.96728516 C-2.27919181 331.94187376 2.29669633 334.84685543 6.875 337.75 C7.77879395 338.32387451 8.68258789 338.89774902 9.61376953 339.48901367 C11.46107657 340.66191481 13.30857141 341.8345202 15.15625 343.00683594 C18.10576695 344.87965766 21.05318397 346.75574413 24 348.6328125 C24.98371582 349.25937744 25.96743164 349.88594238 26.98095703 350.53149414 C28.85182262 351.72323584 30.72259715 352.91512051 32.59326172 354.10717773 C37.71359016 357.36719429 42.847908 360.60290208 48 363.8125 C47.51815156 370.23422561 45.24554491 375.25211349 42.4375 381 C41.9849585 381.93400635 41.53241699 382.8680127 41.06616211 383.83032227 C37.55892938 390.93927736 33.77090875 397.46304658 29 403.8125 C28.59700684 404.35390625 28.19401367 404.8953125 27.77880859 405.453125 C8.95791078 430.59484332 -13.98353981 450.49012653 -42 464.8125 C-42.64485352 465.15442383 -43.28970703 465.49634766 -43.95410156 465.84863281 C-102.72181198 496.91113338 -180.34317235 499.92141272 -243.13671875 480.99609375 C-273.02464939 471.62862944 -301.98870736 457.31615623 -325 435.8125 C-326.34956303 434.64051105 -327.70350123 433.47353438 -329.0625 432.3125 C-336.26747816 426.02267027 -342.8767721 419.15314132 -349 411.8125 C-349.41056641 411.3263623 -349.82113281 410.84022461 -350.24414062 410.33935547 C-363.80760686 394.19999489 -375.35019406 376.54714461 -385 357.8125 C-385.37962891 357.07918457 -385.75925781 356.34586914 -386.15039062 355.59033203 C-424.36047378 280.84633206 -423.51008622 191.81082063 -398.13671875 113.1796875 C-381.37505655 62.62372715 -353.43891924 13.09621571 -309 -18.1875 C-308.16879639 -18.78522217 -308.16879639 -18.78522217 -307.32080078 -19.39501953 C-275.52084423 -42.16591503 -237.69318811 -54.362471 -199 -58.1875 C-197.87464844 -58.29964844 -196.74929687 -58.41179687 -195.58984375 -58.52734375 C-125.99704384 -64.25482334 -52.15267215 -48.5165691 0 0 Z M-277 -34.1875 C-277.73798828 -33.82930176 -278.47597656 -33.47110352 -279.23632812 -33.10205078 C-319.63401247 -13.38155474 -350.1118189 20.15800594 -372 58.8125 C-372.36641602 59.44365723 -372.73283203 60.07481445 -373.11035156 60.72509766 C-389.50527017 88.99732836 -399.39563402 120.98673636 -406 152.8125 C-406.19432617 153.71097656 -406.38865234 154.60945313 -406.58886719 155.53515625 C-407.89978927 161.60246055 -409.02469798 167.68234083 -410 173.8125 C-410.22647217 175.21773926 -410.22647217 175.21773926 -410.45751953 176.65136719 C-412.9976758 193.29528215 -413.31219217 209.88228231 -413.375 226.6875 C-413.38285522 227.71782349 -413.39071045 228.74814697 -413.39880371 229.80969238 C-413.55669074 256.42690171 -409.23860444 282.23609764 -402 307.8125 C-401.68160156 309.00488281 -401.36320312 310.19726562 -401.03515625 311.42578125 C-398.92061738 319.19607469 -396.26290879 326.45786869 -393 333.8125 C-392.42859166 335.14927169 -391.85835285 336.4865437 -391.2890625 337.82421875 C-377.5467401 369.80223661 -358.98748349 397.55050936 -335 422.8125 C-334.49452637 423.34665527 -333.98905273 423.88081055 -333.46826172 424.43115234 C-319.88067732 438.68815936 -305.07625854 449.05820445 -288 458.8125 C-287.35482422 459.19003418 -286.70964844 459.56756836 -286.04492188 459.95654297 C-258.96873813 475.77575131 -227.03531307 485.07958122 -196 488.8125 C-194.69482422 488.97878906 -194.69482422 488.97878906 -193.36328125 489.1484375 C-155.54696394 493.14045958 -114.06473777 488.4805034 -78 476.8125 C-76.23017802 476.30893187 -74.45947726 475.80843074 -72.6875 475.3125 C-47.99273104 467.75203829 -24.35629558 453.78790938 -5 436.8125 C-3.72769531 435.70455078 -3.72769531 435.70455078 -2.4296875 434.57421875 C0.07931052 432.35294986 2.54802617 430.09647562 5 427.8125 C5.73863281 427.12800781 6.47726562 426.44351563 7.23828125 425.73828125 C22.47486406 411.09708889 34.20258112 392.91669885 43 373.8125 C43.4228125 372.91789062 43.845625 372.02328125 44.28125 371.1015625 C45.12372748 368.41845487 44.99531999 367.41366971 44 364.8125 C42.39381745 363.30237723 42.39381745 363.30237723 40.30078125 362.0703125 C39.51525879 361.56894775 38.72973633 361.06758301 37.92041016 360.55102539 C37.0597998 360.01856201 36.19918945 359.48609863 35.3125 358.9375 C34.41837402 358.37087646 33.52424805 357.80425293 32.60302734 357.22045898 C30.70248358 356.01722159 28.79873811 354.81902891 26.89208984 353.62548828 C23.19483459 351.3077593 19.518436 348.9581209 15.84130859 346.60864258 C13.104319 344.86180067 10.36324316 343.12154158 7.62109375 341.3828125 C3.752865 338.92892823 -0.1082785 336.46436082 -3.96484375 333.9921875 C-4.94404785 333.36562256 -5.92325195 332.73905762 -6.93212891 332.09350586 C-8.79119056 330.90366228 -10.6490299 329.71190574 -12.50537109 328.51782227 C-17.89749831 325.07174513 -23.36570597 321.84700761 -29 318.8125 C-29.52207031 319.53953125 -30.04414063 320.2665625 -30.58203125 321.015625 C-36.25995354 328.77180605 -42.37185903 335.85692093 -49 342.8125 C-49.98226562 343.87404297 -49.98226562 343.87404297 -50.984375 344.95703125 C-68.17931561 362.99702236 -90.7825398 375.41919189 -114 383.8125 C-114.89847656 384.17085937 -115.79695313 384.52921875 -116.72265625 384.8984375 C-124.3070514 387.86964385 -131.98651839 389.43620082 -140 390.8125 C-141.1034375 391.02003906 -142.206875 391.22757813 -143.34375 391.44140625 C-177.35577244 397.01906589 -212.48445245 390.85958334 -240.8125 370.875 C-246.15703978 366.81915842 -251.12855818 362.42103861 -256 357.8125 C-256.81210938 357.06484375 -257.62421875 356.3171875 -258.4609375 355.546875 C-279.17635154 335.8116856 -292.19668007 308.6517466 -301 281.8125 C-301.26055176 281.03583984 -301.52110352 280.25917969 -301.78955078 279.45898438 C-302.6003662 277.03878609 -303.3963483 274.61419146 -304.1875 272.1875 C-304.42549316 271.47287598 -304.66348633 270.75825195 -304.90869141 270.02197266 C-307.26094393 262.64213065 -308.44863127 255.56934366 -310 247.8125 C-186.58 247.8125 -63.16 247.8125 64 247.8125 C64.84176504 235.7457608 64.84176504 235.7457608 65.19287109 223.69116211 C65.20104858 222.89835342 65.20922607 222.10554474 65.21765137 221.28871155 C65.2420027 218.72242892 65.25889886 216.15619991 65.2734375 213.58984375 C65.27876118 212.69224398 65.28408485 211.7946442 65.28956985 210.86984444 C65.31609875 206.10846954 65.33552726 201.34711888 65.35009766 196.58569336 C65.36333915 192.72184062 65.39103931 188.85852823 65.43212891 184.99487305 C65.67405046 161.70027157 65.03791777 139.64392709 60 116.8125 C59.67850227 115.33225845 59.67850227 115.33225845 59.35050964 113.82211304 C47.40147661 59.49311342 16.89233502 10.27532711 -30.07739258 -20.24438477 C-38.41247845 -25.51647266 -47.07760483 -30.00249408 -56 -34.1875 C-57.05703125 -34.69796875 -58.1140625 -35.2084375 -59.203125 -35.734375 C-92.26201559 -50.87958103 -129.37914935 -56.59990983 -165.47021484 -56.44824219 C-168.49727392 -56.43750967 -171.52373982 -56.44821678 -174.55078125 -56.4609375 C-210.15409255 -56.4875286 -244.95168689 -50.08275775 -277 -34.1875 Z " fill="#211D1E" transform="translate(3917,1880.1875)"/>
<path d="M0 0 C105.6 0 211.2 0 320 0 C318.77679308 145.56162407 318.77679308 145.56162407 318.125 210.77148438 C318.02837909 220.4385968 317.93545407 230.10574104 317.84381866 239.77290189 C317.76235676 248.34465003 317.67798817 256.91636664 317.59148407 265.48806536 C317.54101639 270.49550092 317.49166792 275.5029402 317.44555664 280.51041794 C317.4029001 285.13636148 317.3565689 289.76225483 317.30761719 294.38813591 C317.29060524 296.05155742 317.27480895 297.71499201 317.26049805 299.37843895 C317.1396894 313.27594797 316.55601309 327.09967266 316 341 C279.7 341 243.4 341 206 341 C206 304.04 206 267.08 206 229 C191.32030039 232.56949737 191.32030039 232.56949737 177.5 237.875 C176.38878784 238.38969849 176.38878784 238.38969849 175.25512695 238.91479492 C148.22951272 251.70304287 129.99218719 274.08450789 119.76123047 301.8515625 C116.37333258 311.41330126 113.89656639 321.10843892 111.85546875 331.0390625 C111.67512085 331.90635986 111.49477295 332.77365723 111.30895996 333.66723633 C110.87043153 335.77769987 110.43489791 337.88878534 110 340 C71.99005292 340.85334682 34.01796443 341.13682335 -4 341 C-2.18239206 301.87411275 -2.18239206 301.87411275 1 288 C1.15275391 287.30874023 1.30550781 286.61748047 1.46289062 285.90527344 C9.48827323 250.49447173 29.99075912 218.07571509 54.44921875 191.7734375 C56.50741887 189.53557826 58.4845353 187.26585207 60.4375 184.9375 C65.17178741 179.49475628 70.60285808 174.76692687 76 170 C76.50273438 169.55253418 77.00546875 169.10506836 77.5234375 168.64404297 C101.04557677 147.8108011 128.91262381 129.93944643 158 118 C149.79050747 116.96211892 141.63584307 116.82969672 133.37060547 116.79467773 C131.9208703 116.78507898 130.47113781 116.7750678 129.02140808 116.76467896 C125.11511734 116.73783989 121.20881477 116.71671781 117.30248404 116.69667697 C113.20921311 116.67468656 109.11597774 116.64736225 105.0227356 116.62062073 C97.2846993 116.5708692 89.54664309 116.52586591 81.80856812 116.48259836 C72.99348649 116.43307529 64.17844057 116.37821345 55.36339355 116.32291877 C37.24229538 116.20936827 19.12116291 116.10266081 1 116 C-1.57216398 77.41754032 0 38.66810342 0 0 Z M2 2 C2 39.3348214 2.53335119 76.66809504 3 114 C87.645 114.495 87.645 114.495 174 115 C168.72 116.98 163.44 118.96 158 121 C128.18739466 134.02546975 101.20022972 151.27159802 77 173 C76.46793945 173.47566406 75.93587891 173.95132813 75.38769531 174.44140625 C66.02900141 182.83393077 57.082678 191.36777658 49.234375 201.21875 C47.82187534 202.97696636 46.377324 204.71031188 44.890625 206.40625 C32.44535818 220.75918546 23.45819469 238.09201836 15 255 C14.24976563 256.46566406 14.24976563 256.46566406 13.484375 257.9609375 C1.23611805 283.15513691 -1 311.40195069 -1 339 C34.97 338.67 70.94 338.34 108 338 C109.32 331.4 110.64 324.8 112 318 C120.39101341 285.83444861 136.09239547 258.89760531 165.0703125 241.203125 C178.79457903 233.24600792 193.55634934 229.08873013 209 226 C209 263.29 209 300.58 209 339 C243.65 339 278.3 339 314 339 C314.79972999 302.61830301 314.79972999 302.61830301 315.29711914 266.23510742 C315.31674356 264.14956959 315.33660499 262.06403397 315.35667419 259.97850037 C315.40878222 254.48943729 315.45749388 249.00034983 315.50525212 243.5112474 C315.54630912 238.83526963 315.58924953 234.15930979 315.63215441 229.48334867 C315.73391244 218.39248504 315.83291412 207.3015994 315.92993164 196.21069336 C316.02810194 184.99225558 316.13045854 173.77386188 316.23503023 162.55548209 C316.32649656 152.72936441 316.41547013 142.90322615 316.50260442 133.0770691 C316.56236261 126.33875327 316.62345997 119.60045403 316.68738091 112.8621763 C317.02446119 75.9049103 317 38.96215666 317 2 C213.05 2 109.1 2 2 2 Z " fill="#211D1E" transform="translate(663,2016)"/>
<path d="M0 0 C24.38313275 25.15720046 31.88017042 57.85857883 33.5 91.875 C-54.61 91.875 -142.72 91.875 -233.5 91.875 C-233.5 59.37915844 -221.05706519 26.12426415 -198.2421875 2.6171875 C-147.60256659 -48.02243341 -52.07674135 -49.25440047 0 0 Z M-199.2421875 7.27734375 C-203.97748827 12.39699447 -207.92114427 17.88369354 -211.5 23.875 C-211.87463379 24.49681152 -212.24926758 25.11862305 -212.63525391 25.75927734 C-224.20411824 45.3250525 -229.6227234 66.34768081 -231.5 88.875 C-145.04 88.875 -58.58 88.875 30.5 88.875 C30.5 80.37341879 30.40081423 73.1546377 28.8125 65 C28.54131348 63.57856689 28.54131348 63.57856689 28.26464844 62.12841797 C22.50717382 33.21844107 6.9837292 5.7736781 -17.55859375 -11.24609375 C-41.6250242 -26.52957719 -67.99550419 -32.34599828 -96.25 -32.375 C-97.27395874 -32.37651062 -97.27395874 -32.37651062 -98.31860352 -32.37805176 C-136.6665615 -32.33996814 -172.26849327 -20.89067445 -199.2421875 7.27734375 Z " fill="#1F1B1C" transform="translate(3313.5,1952.125)"/>
<path d="M0 0 C1.093125 0.3815625 2.18625 0.763125 3.3125 1.15625 C33.29096031 12.18606087 54.83419541 32.63734348 68.20019531 61.49926758 C73.01932936 72.28466254 76.06359165 82.93753301 77.8125 94.625 C77.93665283 95.44709961 78.06080566 96.26919922 78.1887207 97.11621094 C79.17954561 104.56019437 79 111.30721954 79 119 C-8.78 119 -96.56 119 -187 119 C-187 100.43778027 -187 100.43778027 -184.875 92.5 C-184.6490918 91.61473633 -184.42318359 90.72947266 -184.19042969 89.81738281 C-179.08451541 70.44843576 -170.84065348 52.48497654 -158 37 C-157.29230469 36.14019531 -156.58460938 35.28039063 -155.85546875 34.39453125 C-139.87235864 15.81956544 -118.53270175 3.93168218 -95 -2 C-94.03964844 -2.27585937 -93.07929688 -2.55171875 -92.08984375 -2.8359375 C-63.41340163 -10.80380725 -28.0832317 -9.82913109 0 0 Z M-89 -1 C-89.71317383 -0.8443457 -90.42634766 -0.68869141 -91.16113281 -0.52832031 C-120.96631056 6.03536938 -147.16789213 23.42381697 -163.8046875 49.10351562 C-176.503956 69.25219163 -185 93.04599168 -185 117 C-98.54 117 -12.08 117 77 117 C77 84.15762188 65.90243498 51.84528322 42.6875 28.1875 C27.05787092 12.85112693 8.02118892 4.19109272 -13 -1 C-13.7027002 -1.17934082 -14.40540039 -1.35868164 -15.12939453 -1.54345703 C-37.75560271 -7.02183925 -66.43993649 -6.46214056 -89 -1 Z " fill="#211D1E" transform="translate(3800,1924)"/>
</svg>
